M48
INCH
VER,1
FMAT,2
;FILE_FORMAT=2:4
T01C0.09093
T02C0.1142
T03C0.09899
T04C0.07929
T05C0.07275
T06C0.03785
T07C0.03127
T08C0.02697
T09C0.02467
T10C0.01458
DETECT,ON
ATC,ON
%
G90
T01
X004195Y013968
X013229Y027367
X097839Y026862
X105170Y026777
Y037564
Y035201
Y045989
X015173Y069302
X107636Y070099
X107653Y074859
X092719
X089448
X073589
X070267
X054408
X042583Y074842
X027649
T02
X094851Y045167
X015173Y069302
T03
X055916Y014277
X094851Y045167
X107653Y074859
T04
X013229Y027367
Y044490
X020756Y072890
T05
X105684Y029593
X021235Y069465
X010960
X011123Y072890
X020756
X015027Y076640
T06
X104725Y032855
Y030056
X105683Y029593
X104725Y029122
X105683Y031451
Y032384
X104725Y031922
X105683Y030527
X104725Y030989
X105683Y043172
Y041314
Y042239
Y040381
X104725Y041777
Y042710
Y039910
Y040843
Y043643
X028428Y056006
Y054294
X009419Y067188
X007706
X005993
X004281
X003836Y073806
Y072119
X004281Y069533
X005522Y076331
X007706Y069533
X009419
X008888Y072119
X008049Y072958
X007201Y076331
X006362
X005993Y069533
X006362Y073806
X014548Y070569
X029987Y074414
X033720
X030920
X031854
X032787
X030449Y075372
X031383
X032316
X033249
X034654Y074414
X039783Y075372
X040245Y074414
X034183Y075372
X035578Y074414
X036512
X035116Y075372
X036049
X036983
X038850
X037445Y074414
X038378
X039312
X037916Y075372
X060471Y074431
X060008Y075390
X059075
X059538Y074431
X058604
X057662
X057208Y075390
X058142
X056737Y074431
X061404
X062338
X063271
X060942Y075390
X061875
X062800
X063733
X067013Y074431
X064667Y075390
X065600
X066534
X064204Y074431
X065138
X066071
X067467Y075390
X067938Y074431
X079652
X080585
X080123Y075390
X079190
X078256
X077323
X076390
X078719Y074431
X077785
X076843
X075918
X081056Y075390
X081519Y074431
X082452
X083386
X081981Y075390
X082914
X084319Y074431
X087119
X086194
X085252
X086648Y075390
X085715
X084781
X083848
X100649Y074431
X099723
X098790
X097857
X096923
X095990
X095056
X103449
X102515
X101582
X098319Y075390
X097386
X096452
X095519
X099252
X100186
X101119
X102053
X102986
X105315Y074431
X104382
X103919Y075390
X104853
T07
X004324Y056691
Y054807
X004255Y052924
X004880Y052333
X005737Y052924
Y056100
X106351Y063369
X018667Y064653

X017810
X016954
X016098
X014548Y070569
T08
X012587Y029294
Y030150
Y031006
Y031862
X011945Y032290
Y031434
Y030578
Y029722
Y028866
X013229
X013872Y029294
X013229Y029722
X013872Y030150
X013229Y030578
X013872Y031006
X013229Y031434
X013872Y031862
X013229Y032290
X020722Y032547
X023291
X024147
X022434
X021578
X019865
X019009
Y027410
X019865
X020722
X021578
X022434
X023291
X024147
X031854Y032547
X025003
X030055Y023985
X033566Y032547
X032710
X027572
X026716
X025859
X028428
X030997
X030141
X029285
X025003Y027410
X025859
X033566
X026716
X027572
X028428
X029285
X030141
X030997
X031854
X032710
X034422Y032547
X035279
X036135
Y027410
X035279
X034422
X055573Y022701
X101813Y026640
X100957
X099244
X100100
X050521Y033232
X019951Y036485
X012587Y033575
Y034431
Y035287
Y036143
Y036999
Y037855
Y038712
Y039568
Y040424
Y041280
Y042136
Y032718
X011945Y039996
Y040852
Y041708
Y042564
Y039140
Y038283
Y037427
Y036571
Y035715
Y034859
Y034003
Y033146
X013872Y032718
X013229Y042564
Y041708
Y040852
Y039996
Y035715
Y034859
Y034003
Y033146
Y036571
Y037427
Y038283
Y039140
X013872Y042136
Y041280
Y040424
Y036143
Y035287
Y034431
Y033575
Y036999
Y037855
Y038712
Y039568
X012587Y042992
X013872
X005737Y052333
X019042Y050963
X019716
Y051637
Y052311
X019042Y048268
X019716
Y048942
X019042
Y049616
X019716
Y050289
X019042
Y052311
Y051637
X032710Y043677
X053090Y048985
X070301Y049071
X101128Y049927
X095904
X104810
X106352Y059773
X060796Y062085
X053346Y062427
X041615Y058232
Y053095
X039046
Y058232
X033224Y056349
X027743Y057205
Y058917
X019716Y052984
Y053658
Y054332
Y055006
Y055680
Y056354
Y057027
Y057701
Y058375
Y059049
Y059723
Y060397
X022434Y052924
X022606Y058061
X019042Y061070
X019716
Y061744
X019042
Y062418
X019716
X019042Y055680
Y055006
Y054332
Y053658
Y052984
Y058375
Y059049
Y059723
Y060397
Y057701
Y057027
Y056354
X007115Y057128
Y057967
X007706Y058403
X008297Y057967
Y057128
X007706
X011816Y060801
Y059122
X004880Y057282
Y053515
Y054217
Y055398
Y056100
X005737Y054217
Y053515
Y055398
Y054807
Y056691
Y057282
X009761Y065766
Y070903
X009898Y063198
X004281Y070903
Y065766
X007706Y070903
Y065766
X008220Y063198
X011979Y070569
X012835
X013691
X005651Y065766
Y070903
X022708Y071417
X024387
X044184Y069533
X043328
X042472
X042900Y068849
X043756
X049750
X049322Y069533
X048466
X047609
X046753
X045897
X045040
X054032Y068849
X050606
X051463
X052319
X053175
X053603Y069533
X052747
X051891
X051035
X050178
X044612Y068849
X048894
X048038
X045469
X046325
X047181
X054888
X054460Y069533
X057542Y069619
X058399
X059255
X060111
X065249Y068164
Y066451
X071671Y063883
X081142Y070218
X079463
X075953Y063883
X093764Y063455
X092308Y069790
Y068934
X091452
Y069790
X093164
Y068934
X094020Y069790
Y068934
X095733
X096589
X097446
Y069790
X096589
X095733
X094877
Y068934
X102584Y069790
X101727
X100871
Y068934
X101727
X102584
X098302Y069790
X099158
X100015
Y068934
X099158
X098302
X103440Y069790
Y068934
X105153Y069790
X104296
Y068934
X105153
X106352Y063369
T09
X011131Y020989
X010104
X006336Y024157
X020722Y022530
X020893Y024328
X017810Y026211
X015630Y020989
X020722
X016611Y028266
X019009Y028438
X019866
X020294Y030150
Y030835
X027144Y020903
X033395Y029807
X026716Y023386
X024490Y024585
X027401Y023900
X025774Y028352
X027572Y028780
X031083Y029465
X034251Y029979
X034936Y026811
X043157Y028780
X040931Y029807
X038362Y029122
X038875Y030321
X043328Y028266
X037163Y026297
X037762Y026811
X041101Y027068
X051463Y029979
X047096Y028780
X048980Y028951
X049579
X050264
X051291
X053090Y029747
X048123Y028951
X053090Y030664
X056601Y028780
X103440Y030835
X101727
X097446
X100015
X098302
X099158Y028095
X101727
X102584Y025527
X101042Y039311
X101727
X099158Y039054
Y031348
X099929Y036486
X102584Y034003
X101299
X102584Y036657
X098302Y033917
X097446
X064564Y037855
X065120Y036999
X051206Y040081
X052062Y037170
X052576Y037513
X051720Y039568
X051891Y040081
X054288Y034260
X051548Y033232
Y034260
X053261Y031520
X051463Y032376
X049493Y039225
X048808Y038883
X049322Y038711
X051035Y039568
X050349
X050692Y039054
X050007Y038883
X050863Y034260
X050178
X051377Y031177
X043842Y034944
Y033575
X043328Y033146
Y033917
Y034602
Y035287
X046411Y038540
X044698Y035972
X045554
X046239Y035372
X047781Y034431
X048123Y031520
X047096
X045126
X041615Y031348
X044869Y031006
X044184Y031177
X029114Y035116
Y035801
X029370Y038455
X029285Y039140
X030055Y039311
X033480Y034773
X035107
X033908Y034088
X034765Y033917
X032881Y034773
X033224Y033746
X032539
X030141
X032025Y033232
X034251Y039739
X034422Y039225
X034251Y038711
X034422Y037684
X030741Y038883
X032453Y039225
X031597Y039568
X031854Y040081
X032539Y040253
X031425Y038626
X032111Y038540
X037676Y032033
X038362Y032547
X035964Y033917
X036820Y034260
X037419Y034602
X036135Y034773
X036649Y034944
X037676Y034088
X038019Y036143
X031169Y031862
X030483
X023462Y038711
X023291Y034260
X027743Y034602
X028343Y037855
X028600Y038540
X027915Y035801
X019609Y033146
X019266Y036229
X020893Y036143
X020379Y035886
X022092Y035629
X020223Y035130
X022434Y034431
X021235Y033746
X022092Y033403
X020551Y033318
X020893Y036742
X021749Y036999
X022948
X021150Y037342
X022434Y031862
X024661Y040424
X025003Y033746
X023976Y034260
X023633Y035629
X024661Y035801
X026801Y037427
X026031Y035801
Y034602
X027058Y034431
X025859Y033746
X027058Y038112
X026973Y038711
X027230Y039482
X026373Y040081
X027315Y040167
X026373Y040766
X018666Y034431
X018581Y036999
X018496Y038711
X015755Y035715
X017810Y035116
X003938Y044569
X004281Y047616
X004966Y050527
X005480Y048643
X007535Y047359
X008391Y049499
X007364Y048814
X011816Y044569
X006165Y048814
X018666Y042821
X023462Y043677
X015113Y050569
X015970
X017982Y042821
X016823Y050569
X017639Y050527
X017468Y045732
X016611Y042821
X017297
X021321Y043677
X020722Y042821
X020037
X019352
X028086Y041965
X024832Y047444
X024661Y044705
X026202Y047102
X027572Y042136
X026373Y041794
X026545Y041280
X030141Y050869
X032796Y041109
X035793Y048472
X043842Y042821
X034765Y050527
X035279Y047872
X035621Y044705
X034594Y043677
X036906Y050527
X036563Y043677
X037163Y041622
X036649Y041109
X044441Y043677
X044184Y042307
X044527Y042821
X050264Y048986
X051891Y041622
X052747Y041879
X062166Y048986
X063023Y049842
X061139
X062166Y042136
X081005Y049842
Y049071
X100272Y041965
X101727Y044705
X107208Y047958
X106351Y059773
X051548Y059944
X052405
X034765Y054979
X032025
X035621Y056520
X035107Y056177
X035621Y055835
X035107Y055492
X035621Y055150
X029798Y055835
X031511Y055321
X029798Y055150
X034080Y054465
X032881Y053951
X033224Y054465
X031682
X032025Y053951
X031340
X030655Y053266
X029627Y051554
X033738Y053951
X034936Y054465
X035621
X036135Y054122
X035450Y053951
X034594
X038190Y057547
X029285Y058232
X028942Y057718
X031340Y057547
X029456Y057376
X031854Y057205
X036135Y056862
X035621Y057205
X035107Y057547
X036135
X034080Y058746
X034765
X035450
X036135
X029285Y058917
X026373Y056006
X025177Y054807
X023804Y054465
X026202Y053780
X024232Y053009
X022434Y056006
X021150Y054122
X022434Y051897
X026887Y053780
X028086Y053609
X027401
X012673Y052753
X017254Y050912
X016398
X015539
X016355Y053438
X017125Y052581
X017810Y053181
X003938Y051040
X021749Y062427
X023890Y069705
X031854Y061143
X027572Y062342
X031169Y064910
X032025Y064397
X029114Y062170
X028428
X029627Y061657
X028257Y061143
X025859Y066451
X026887Y067136
X025003Y067992
X029114Y067136
X033224
X031511Y069533
X039560Y065424
X037163Y063540
X039560
X038190Y061657
X039475Y062256
X041444Y062342
X040931Y062513
X039903Y070218
X041615
X043328
X041615Y069533
X042300Y065852
X040417Y065938
X042472Y066623
X040502
X041444Y067136
X041787Y067650
X040759Y065424
X036477Y066623
Y065766
X034936Y069533
X035621Y070218
X037505Y065766
X037334Y066623
X038019Y067136
X037334Y069705
X037848Y070218
X046582Y061657
X045383Y062513
X045554Y070218
X052747Y068164
X059597Y063540
X056515Y066965
X057371
X060368Y068164
X060454Y065595
X070729Y070218
X066234Y064910
X066277Y067650
X080662Y063883
X088883Y070218
X087170
X085457
X090595
X108749Y069876
X059812Y070946
X067818Y072787
X041615Y072958
T10
X010104Y022530
X008134Y021674
X004795Y021075
X006421Y018848
X003082Y016537
X008220Y014225
X010275Y016879
X016269Y022701
X021407Y023215
X014385Y014225
X022263Y021246
X022948Y020561
Y020047
X022006Y023557
X033052Y022556
X029199Y022530
X025859Y013711
X031425Y021759
X032196Y021246
X027915Y018592
X026031Y020732
X024147Y021246
X025174
X029970Y021759
X032196Y023129
X026031Y023557
X027401Y023215
X034337Y022556
X035193
X035279Y013711
X036135Y022359
X035279Y020647
X036135Y018592
X037505Y022958
X035878
X040331Y022701
X052918Y014140
X056172Y020903
X100871Y030835
X100785Y028095
X097446Y031348
X098302
X096247Y027753
X098302Y028095
X097446
X050521Y031948
X049579Y026725
X054117Y026211
X048123Y033147
X046924
X041615Y029807
X041444Y031862
X047096Y030664
X041701Y030321
X046068Y028095
X045554
X044955Y028609
X039817Y028095
X040331
X048294Y026383
X045640Y026640
X046068
X046582Y026725
X041530Y026468
X042215Y026297
X039560Y025355
X040502
X035535Y026811
X029285Y025355
X036306Y026554
X036049Y029807
X034936Y029636
X035621Y029551
X035878Y024328
X037163Y024157
X031169Y033232
X032453Y031862
X037163Y032033
X036735Y031862
X036649Y030321
X034765
X033738Y031348
X034765
X031939Y030321
X035535Y028437
X036221
X036906
X037334
X034423Y028095
X029798Y031862
X029456Y030064
X029114Y031862
X037163Y026811
X028257Y025355
X025688Y026554
X025003
X024147
X024918Y029122
Y030321
X024318
X022092Y028609
X021921Y030664
X023290Y031862
X023462Y031177
X025089Y031092
X023462Y030664
X022092Y024414
X022263Y023986
X021578Y023729
X027315Y024585
X023633Y024328
X026031Y024242
X025346Y023986
X019009Y030150
X019609
X026887Y031006
X026545Y028095
X028428Y031348
X015584Y024242
X016869
X011816
X010104Y024414
Y026126
X011816
X008220Y033318
X003082Y025355
X008049
X008134Y031948
X003082Y030492
X008648Y029722
X008391Y030150
X008305Y030749
X009761Y040937
X009847Y037770
X010446Y038540
X010104Y039054
X010446Y039910
X003082Y042992
X004795Y036657
X004820Y038309
X007192Y041623
X007877Y035030
X009248Y039568
X011303Y042479
X011559Y041280
X005651Y037170
Y034944
X014300Y041879
X015413Y033917
X015755Y034859
X016098Y035287
X015584Y037170
X015413Y037770
X014899Y038711
X015927Y040167
X014899Y039568
X015413Y039311
X016611Y036229
X016440Y037770
Y040167
X020979Y039996
X019009Y039225
X022434Y037941
X019352Y037684
X023976Y040338
X030826Y033917
X031169Y034259
X031854Y041623
X039903Y042650
X042985Y043420
X041230Y037556
X041187Y041280
X040245Y042650
X042643Y043078
X039346Y042950
X046496Y043164
X043499Y041794
Y042393
X043756Y035886
X044013Y035458
X048140Y038027
X047224Y038326
X047866Y038455
X045041Y042650
X045469Y042821
X045897Y042992
X052405Y040595
X052747Y040167
X052918Y041366
X051398Y036421
X048466Y034602
Y038369
X048894Y034773
X049236Y035115
X049665Y035458
X050114Y035608
X050542Y035908
X050970Y035993
X058484Y037855
X054032Y041109
X053090Y040595
X054460Y040852
Y040338
X053604Y041537
X053261Y042393
X053432Y041965
X065591Y037256
X066705Y037342
X067989Y038027
X066962
X065591
X068760Y037427
X072442Y037684
X071414
X070387
X069402Y037470
X073041Y042393
X066962Y042136
X072442Y036914
X071586
X070901
X070044
X068418Y036828
X067561
X066277
X079292Y037170
X078479Y037256
X077537Y037641
X074497Y037684
X075525
X076552
X073298
X079892
X078864Y037770
X081390Y037941
X081861
X080149Y038369
X079549Y038711
X081861
X073812Y041708
X073641Y041366
X078350Y041708
X078179Y041366
X081519Y041623
X080491Y041708
X073555Y042307
X081005Y042136
X073812Y036999
X073127Y036914
X074668Y036999
X081519Y041109
X080491
X077665Y040424
Y040852
X078094
X079464Y041194
X074326Y041023
X073983Y041194
X081390Y036914
X080491
X075525Y036999
X076552
X077494
X091366Y043164
X085629Y038711
X087084
X083403Y041623
X089482
X090938Y041708
X091366Y042735
Y042307
X083403Y041109
X089482
X091366Y043592
X093764Y043164
X093336Y041280
X094021
X094534
X096247Y037427
X098645Y037513
X098131
X099501Y041451
X098045Y041537
X098816Y041965
X096932Y042564
X094192Y039739
X097274Y040681
X099115Y040637
X099073Y040167
X095562Y039568
X098045Y036571
X099158
X096247Y036229
X099158Y034088
X101728Y036657
X108749Y052667
Y049927
X100443Y052667
X101299
X103012
X099758
X098987
X099158Y047187
X103183Y045390
X105495Y051554
X105752Y052068
X106180
X103868Y052325
X101728Y051982
X102584Y051640
X103526Y051554
X103012
X106951Y048814
X107208Y049242
X105495Y049328
X105923
X099758Y050783
X102156Y049242
X101728Y049927
X106780Y049328
X106351
X106865Y048301
X107208Y047958
X091366Y051040
Y046588
X096761Y052667
X096247
X095647
X091280Y045304
X097446Y047359
X098302
X093764Y047273
X091024
Y046845
X091280Y046160
X091366Y045732
X089054Y046331
X094363Y051982
X091880Y051640
X091024Y051468
X091452
X097018Y053523
X092908Y053266
X090852Y053095
X092479Y053266
X089225Y049071
X093593Y048814
X094277Y049927
X098645Y050783
Y049927
X089311Y048129
X091024Y047701
X089910Y048386
X091366Y044020
Y044448
Y044876
X097446Y044533
X081005Y046588
X083574
X079035Y045304
X079464Y050527
X078864Y045647
X088198
X086485Y045818
X087684Y046503
X086143Y046075
X085715
X087170Y045903
X080149Y051297
Y051725
X079720Y051897
X082032Y051126
X080834Y051554
X083060Y051897
X083745
X082375Y053437
X082803Y053523
X083231
X085115Y053694
X084944Y052924
X088112Y049842
X085629
X081347Y050869
X080320
X079892Y050698
X087684Y049071
X086828Y048129
X087761Y048326
X087299Y048292
X088189Y048138
X088669
X087256Y044961
X086400Y045133
X085715Y045218
X083574Y044876
X081433
X080491
X079720Y044790
X079035Y044961
X076381Y051040
X071329Y046588
X069017
X076980Y050441
X075781
X075353Y050527
X078265Y050698
X077836
X076638
X075953Y050869
X071243
X071757
X071842Y050441
X073470Y049071
X070901Y046845
X070044Y046674
X071842
X069017Y047016
X070473Y047102
X069873Y047273
X069445Y047444
X078350Y046160
X073298Y046331
X072956
X072442
X070044Y046246
X074154Y046160
X071842
X070986
X078008Y045989
X078350Y045647
X074925Y045475
X076980Y051725
X074411Y052410
X070130Y051982
X069702Y051897
X070729Y051640
X070215Y051554
X071329Y051297
X070729Y051211
X077152Y051126
X068846Y047616
X072956Y044277
X072185Y044448
X061310Y053095
X060968Y052581
X061310Y052239
X060197
X060625Y052068
X060968Y053437
X060539
X059084Y050698
X066277Y048985
X067989Y046931
X066962Y047273
X067989Y047359
X066448Y053694
X065249Y053523
X065849Y053181
X065420Y053095
X066020Y052753
X067390Y048129
X066790Y048301
X067818Y047958
X068418Y047787
X066962Y047701
X050949Y052753
X050435
X049322
X050007Y052581
X048808Y052410
X049750Y047958
X049322Y047873
X048894Y047701
X050778Y049842
X058656Y050527
X057628Y048985
X039903Y047873
X043242Y048900
X040331Y048044
X042043Y047873
X040588Y045989
X042985Y044277
X042814Y045647
X046582Y052325
X048123Y052410
X047010
X047609Y047187
X048038Y047359
X048466Y047530
X045983Y048814
X046668Y047016
X046239Y046845
X045811Y046674
X045469Y045304
X046068Y044619
X045383Y044790
X046496Y044619
X047952Y044448
X047438Y044362
X045469
X039218Y046331
Y047444
X028771Y048985
X029199Y050355
X029970Y050184
X031425Y047530
X030997Y047102
X031854Y048985
X031511Y049499
X030312Y049670
X031083Y050013
X036221Y047359
Y046759
X037848Y046845
X038190Y046503
X037848Y045818
X038190Y045561
X022263Y051040
X027658Y047787
X028343Y047958
X028086Y049670
X028171Y048643
X028600Y050013
X022777Y047273
X021150Y046931
X019095Y045903
X023551Y047441
X024746Y046075
X025431Y045475
X025774Y046674
X026973Y047102
X026545Y047444
X026973Y047616
X010874Y051725
X014685Y050912
X018680Y045133
X008905Y047187
X009333Y048814
X012587Y047273
X013358Y049585
X013529Y047016
X004281Y050527
X004195Y048900
X004795Y048729
X008049Y047359
X007877Y044569
X006850Y051725
X010617Y054636
X010532Y055064
X010960Y060373
X010275Y061314
X009504Y057804
X009419Y057376
X009248Y056520
X009162Y062941
X011303Y061828
X011902Y057718
X012244Y056520
X011388Y056348
X012587Y062085
X011474Y054208
X012758Y056520
X021749Y060972
X015413Y062170
X015584Y062684
X014043Y054123
X013186Y054807
X013614Y056520
X013186Y061229
X013700Y057975
X014043Y056520
X015327Y056862
X016012Y057975
X015327Y056348
X016183Y055578
X014471Y055150
X015413Y055064
X016012Y054807
X014557Y054123
X014985
X017297Y060629
X024832Y056177
X023119Y061657
X032367
X031425Y062342
X032111Y062598
X031597Y062770
X029114Y056348
X031425
X027713Y055150
X032453Y054379
X040502Y059345
X042643
X041187Y060715
X042900Y057975
X040502Y058232
X041530Y058917
X042814Y059003
X042386Y061657
X039046Y054722
X041615Y053780
X038190Y054722
X039560Y060629
X039046Y060458
X039817Y060287
X040160Y059773
X038875Y059602
X036820
X038875Y059088
X044955Y056691
X044869Y057890
X048123Y059944
X047267
X046411
X045554
X043156Y059516
X043842Y060801
X049836Y059944
X050692
X050863Y060373
X049836Y060544
X044869Y057205
X044099Y057547
X043756Y057718
X045983Y063540
X043242Y058318
X043585Y058403
X044356Y058061
Y060972
X052319Y062598
X057114Y056691
X053261Y059944
X058741Y054037
X058228Y055492
X057542Y055578
X057885Y055835
X057200Y055920
X056857Y056348
X057457Y056263
X056515Y056777
X056857Y057119
X057970Y057718
X062680Y063540
X055487
X058827
X058656Y058147
X060711Y058061
X059512
X059169
X059084Y054294
X058142Y054807
X058484Y055064
X057799Y055150
X058827Y054722
X058399Y054379
X058913Y062684
X062851Y062256
X059940Y062427
X059341
X064393Y056691
X064906Y055407
X064393Y055578
X063194Y056434
X063622
X063451Y056006
X063794Y055749
X063194Y057718
X066962Y063369
X064650Y063540
X072699Y056862
X063965Y057205
X065335Y055235
X067732Y054807
X068160Y054551
X068246Y054123
X067818Y053951
X067390Y053780
X066876
X067989Y059687
X067475Y059859
X066705Y060116
X066105Y060201
X065677Y060373
X068418Y059602
X072870Y060629
X069873
X070729Y056177
X072699Y056092
X070473Y061143
X069188Y060972
X068332
X067561Y061143
X066790
X065849Y061314
X064564Y061485
X066876Y061742
X072784Y061657
X066191Y061914
X068760Y062513
X082546Y055407
X074583Y061828
X074069
X081562Y057076
X082889Y056777
Y057461
X082204
X080063Y057376
X076381Y057718
X075739Y057676
X078265Y057633
X078607
X078950
X079292
X078778Y060287
X078094Y059687
X081433Y058061
X080234Y057975
X079292
X076552Y058746
X076980
X082889Y056092
X074240Y056605
X080491Y054465
X080919
X082546
X078607
X074925Y054551
X076809
X073641Y061229
X073212Y061657
X074497Y061143
X075011
X075139Y062384
X075696Y062342
X080577Y060629
X079977Y060287
X081433Y060030
X079464Y060629
X086656Y060886
X086828Y056691
X092137Y059345
X091623
X086143Y056777
X085286Y056862
X085800Y057119
X086571Y057205
X083231Y057119
X090767Y053951
X091880
X092394
X083146Y054123
Y057804
X085029Y057718
X086314Y057804
X084687Y057633
X085629Y057547
X086314Y057461
X089396Y057376
X092736Y057633
X086913Y058746
X087256
X085800Y058575
X088112Y058403
X087684Y058061
X089396
X092822Y058403
X092137Y058660
X090938Y059088
X083231Y056434
Y055749
X087684Y055578
X085800
X086314Y056006
X089482Y056177
X085715Y056434
X089739Y056520
X083146Y054807
X085457Y055064
X085286Y054379
X087256Y055235
X088112Y054636
X091965Y063455
X092308
X092650
X093079
X086228Y062684
X085629
X087256Y062170
X090253Y062256
X091109Y062427
X092394Y060030
X091965
X091195Y059516
X091280Y060715
X089910
X101470Y060886
X101128
X096161Y059345
X099244
X093507Y056777
X101042Y053866
X101899Y058403
X101299Y058318
X102840Y058232
X102329Y058230
X100700Y058061
X097446Y059174
X096932Y059088
X098131
X099073Y055492
X096932Y055578
X096675Y056605
X099244
X094877Y056348
X094192Y056177
X093250Y055492
X095990Y056605
X095476
X097960Y056434
X099586
X097446Y056263
X099843Y055664
X100614Y055150
X102669Y055064
X101984
X101299
X093678Y054722
X099586Y055064
X097103Y054979
X098987Y054636
X095904Y054379
X098730Y054294
X101385Y061571
X101728Y061400
X094705Y062770
X101984Y061914
X100101Y059859
X102156Y060544
X101642
X100785
X100357
X100529Y063283
X099672
X098987
X102584Y063711
X105067Y056691
X107722Y061828
X103183Y056777
X104125
X104810Y057290
X105152Y057804
X108749Y058660
X103354Y058232
X104981Y055920
X103354Y055749
X104725Y055064
X103183
X107636Y061314
X107294Y061657
X103098Y061057
X106608Y062513
X106095Y062684
X104382Y059687
X103954Y060030
X108749Y063198
Y064482
X105152Y066623
X104725
X099073Y066879
X099415Y066965
X100015Y067136
X105238Y065509
X102669Y065595
X103012Y065338
X098816Y065595
X100101Y066023
X100529
X102498
X104895Y065937
X105495Y066366
X104211Y066194
X099073Y066537
X100015Y067907
X100871Y067821
X104211Y067907
X105238
X107036Y067821
X102926Y068335
X106351Y070218
X105837
X103868Y068677
X104467Y068420
X104895Y068249
X103611
X105581Y068592
X106951Y068506
X098987Y063883
X099415Y064225
X099843Y064482
X101214
X102584Y064140
X103268Y064482
X105837Y064910
X106437Y064653
Y063968
X090339Y067222
X090852
X089396Y067393
X095219Y065595
X092225Y065598
X091794Y066537
X089225Y069619
X089653Y069105
X090253Y063883
X091452
X088968Y064397
X097788Y067992
X089739Y069619
X091880Y068506
X092736
X090938Y069362
X090510
X096589Y068420
X096161Y068506
X093593
X094363
X095305
X094794Y063885
X079378Y068848
X083317Y066965
X083916Y067308
X085115Y065424
X081690Y065595
X084344
X088112
X085971
X083745Y066109
X080645Y064414
X083403Y063883
X081176
X079378Y064910
X088112Y069105
X088540Y069277
X087084Y069448
X087512
X086228Y069705
X084173Y069191
X083916Y068763
X086828Y063883
X088540Y064910
X081519Y067650
X087770
X084773
X086995Y067646
X085715Y067564
X073041Y066623
X068846Y069534
X071329Y068506
X072014Y068592
X071928Y069448
X071243Y069534
X070729
X069702
X071671Y070218
X078607
X078094
X077408
X073726
X075525
X076466
X070644Y067051
X069787Y066879
X073212Y067136
X073641
X072784Y067222
X077580Y067479
X069873Y065595
X070815Y065424
X077751Y065595
X073555Y066537
X070815Y066366
X069873Y066194
X076210Y066451
X075011
X077836Y063883
X078607Y064397
X073384Y063883
X074668Y067992
X074154
X072014Y073643
X073726Y071588
X072014Y072787
X074583Y071588
X068246Y068164
X068674
X067561Y068335
X068332Y069534
X065249Y067136
X067818Y066965
X066962Y065595
X064992Y066023
X067818Y066280
X064307Y066109
X066448Y063883
X060539Y067650
X065249Y067564
X067646Y067821
X061053Y067650
X060754Y070218
X067133Y069362
X066705Y069705
X066962Y068420
X049665Y071331
X050264Y064996
X055830Y065681
X048894Y068249
X056900Y069576
X056429Y069705
X054974Y072873
X056001
X058527Y072915
X057585Y073001
X056686Y073301
X054117
X052405Y072873
X047352Y065081
X040759Y069705
X048552Y072359
X043585Y068078
X044013Y068249
X044955Y067136
X039046Y069705
Y067136
X038841Y073643
X029627Y069534
X029199
X028771
X033823Y069277
X030911Y070218
Y067136
X032282
X031511Y067821
X032025Y069020
X030483Y069362
X036478Y069705
X038618Y070218
X026373Y064054
X021407Y066879
X028171Y069448
X027658Y067650
X025346
M30
