G04 FAB 3000 Version 8.1.7 - Gerber/CAM Software*
G04 Gerber X2 Output*
%TF.GenerationSoftware,Numerical_Innovations,FAB3000,8.1.7*%
%TF.CreationDate,2019-06-14T15:02:10Z*%
%FSLAX24Y24*%
%MOIN*%
%TF.FileFunction,Soldermask,Top*%
%ADD11C,0.006850*%
%ADD12C,0.025689*%
%ADD13C,0.008563*%
%ADD14C,0.017126*%
%ADD15C,0.021407*%
%ADD16C,0.042815*%
%ADD17C,0.085630*%
%ADD18C,0.034252*%
%ADD19C,0.039335*%
%ADD20C,0.039281*%
%ADD21C,0.039270*%
%ADD22C,0.039350*%
%ADD23C,0.039290*%
%ADD24C,0.039300*%
%ADD25C,0.039320*%
%ADD26C,0.039400*%
%ADD27C,0.039200*%
%ADD28C,0.045139*%
%ADD29C,0.045084*%
%ADD30C,0.054570*%
%ADD31C,0.054590*%
%ADD32C,0.054580*%
%ADD33C,0.054620*%
%ADD34C,0.054640*%
%ADD35C,0.054630*%
%ADD36C,0.054560*%
%ADD37C,0.054600*%
%ADD38C,0.054700*%
%ADD39C,0.054680*%
%ADD40C,0.065485*%
%ADD41C,0.065539*%
%ADD42C,0.090983*%
%ADD43R,0.064230X0.064240*%
%ADD44R,0.064180X0.064180*%
%ADD45R,0.064240X0.064180*%
%ADD46R,0.064200X0.064180*%
%ADD47C,0.145550*%
%ADD48C,0.145620*%
%ADD49C,0.145570*%
%ADD50C,0.145560*%
%ADD51C,0.145600*%
%ADD52C,0.021809*%
%ADD53C,0.021860*%
%ADD54C,0.021870*%
%ADD55C,0.021800*%
%ADD56C,0.021820*%
%ADD57C,0.021880*%
%ADD58C,0.021790*%
%ADD59C,0.021900*%
%ADD60R,0.342500X0.342500*%
%ADD61R,0.046224X0.046220*%
%ADD62R,0.046230X0.046280*%
%ADD63R,0.046230X0.046230*%
%ADD64R,0.046280X0.046240*%
%ADD65R,0.046280X0.046220*%
%ADD66R,0.046280X0.046230*%
%ADD67R,0.046220X0.046230*%
%ADD68R,0.046220X0.046280*%
%ADD69R,0.046200X0.046280*%
%ADD70R,0.269690X0.269690*%
%ADD71R,0.068470X0.021370*%
%ADD72R,0.068470X0.021380*%
%ADD73R,0.068470X0.021430*%
%ADD74R,0.068470X0.021440*%
%ADD75R,0.068520X0.021380*%
%ADD76R,0.068520X0.021430*%
%ADD77R,0.068520X0.021420*%
%ADD78R,0.068530X0.021370*%
%ADD79R,0.068530X0.021380*%
%ADD80R,0.068530X0.021430*%
%ADD81R,0.068530X0.021440*%
%ADD82R,0.068470X0.021420*%
%ADD83R,0.068470X0.021390*%
%ADD84R,0.068470X0.021410*%
%ADD85R,0.068520X0.021440*%
%ADD86R,0.068520X0.021410*%
%ADD87R,0.068520X0.021390*%
%ADD88R,0.068520X0.021370*%
%ADD89R,0.068510X0.021370*%
%ADD90R,0.068510X0.021380*%
%ADD91R,0.068510X0.021430*%
%ADD92R,0.068510X0.021440*%
%ADD93R,0.068460X0.021370*%
%ADD94R,0.068460X0.021380*%
%ADD95R,0.068460X0.021430*%
%ADD96R,0.068460X0.021440*%
%ADD97R,0.068500X0.021370*%
%ADD98R,0.068500X0.021380*%
%ADD99R,0.068500X0.021430*%
%ADD100R,0.068500X0.021440*%
%ADD101R,0.021431X0.068530*%
%ADD102R,0.021376X0.068530*%
%ADD103R,0.021430X0.068470*%
%ADD104R,0.021375X0.068470*%
%ADD105R,0.021430X0.068520*%
%ADD106R,0.021377X0.068520*%
%ADD107R,0.021440X0.068530*%
%ADD108R,0.021440X0.068470*%
%ADD109R,0.021430X0.068510*%
%ADD110R,0.021440X0.068510*%
%ADD111R,0.021380X0.068510*%
%ADD112R,0.021370X0.068510*%
%ADD113R,0.021420X0.068530*%
%ADD114R,0.021390X0.068530*%
%ADD115R,0.021420X0.068510*%
%ADD116R,0.021390X0.068510*%
%ADD117R,0.021390X0.068520*%
%ADD118R,0.021420X0.068520*%
%ADD119R,0.021390X0.068470*%
%ADD120R,0.021370X0.068460*%
%ADD121R,0.021380X0.068460*%
%ADD122R,0.021370X0.068480*%
%ADD123R,0.021390X0.068480*%
%ADD124R,0.021430X0.068480*%
%ADD125R,0.021410X0.068480*%
%ADD126R,0.021380X0.068480*%
%ADD127R,0.021410X0.068520*%
%ADD128R,0.021410X0.068530*%
%ADD129R,0.021440X0.068480*%
%ADD130R,0.021430X0.068460*%
%ADD131R,0.021440X0.068460*%
%ADD132R,0.021410X0.068460*%
%ADD133R,0.021390X0.068460*%
%ADD134R,0.021440X0.068520*%
%ADD135R,0.021410X0.068510*%
%ADD136R,0.021410X0.068470*%
%ADD137R,0.021420X0.068470*%
%ADD138R,0.021500X0.068460*%
%ADD139R,0.021400X0.068460*%
%ADD140R,0.021400X0.068480*%
%ADD141R,0.021500X0.068480*%
%ADD142R,0.021400X0.068530*%
%ADD143R,0.034289X0.042800*%
%ADD144R,0.034233X0.042800*%
%ADD145R,0.034233X0.042810*%
%ADD146R,0.034290X0.042810*%
%ADD147R,0.034300X0.042810*%
%ADD148R,0.034220X0.042810*%
%ADD149R,0.034280X0.042800*%
%ADD150R,0.034280X0.042810*%
%ADD151R,0.034220X0.042820*%
%ADD152R,0.034290X0.042820*%
%ADD153R,0.034220X0.042860*%
%ADD154R,0.034300X0.042860*%
%ADD155R,0.034240X0.042860*%
%ADD156R,0.034300X0.042800*%
%ADD157R,0.034230X0.042860*%
%ADD158R,0.034200X0.042800*%
%ADD159R,0.034200X0.042810*%
%ADD160R,0.171280X0.085610*%
%ADD161R,0.171220X0.085610*%
%ADD162R,0.235510X0.205520*%
%ADD163R,0.085610X0.128410*%
%ADD164R,0.085670X0.128410*%
%ADD165R,0.085660X0.128410*%
%ADD166R,0.128410X0.085610*%
%ADD167R,0.128420X0.085610*%
%ADD168R,0.064230X0.042810*%
%ADD169R,0.064180X0.042810*%
%ADD170R,0.064230X0.042800*%
%ADD171R,0.064230X0.042820*%
%ADD172R,0.064180X0.042800*%
%ADD173R,0.064180X0.042820*%
%ADD174R,0.064180X0.042840*%
%ADD175R,0.064240X0.042800*%
%ADD176R,0.064240X0.042810*%
%ADD177R,0.064180X0.042860*%
%ADD178R,0.064240X0.042860*%
%ADD179R,0.064250X0.042860*%
%ADD180R,0.064250X0.042800*%
%ADD181R,0.064190X0.042810*%
%ADD182R,0.042805X0.064240*%
%ADD183R,0.042805X0.064180*%
%ADD184R,0.042805X0.064190*%
%ADD185R,0.042861X0.064190*%
%ADD186R,0.042861X0.064180*%
%ADD187R,0.042861X0.064240*%
%ADD188R,0.042860X0.064230*%
%ADD189R,0.042810X0.064230*%
%ADD190R,0.042820X0.064240*%
%ADD191R,0.042820X0.064180*%
%ADD192R,0.042800X0.064230*%
%ADD193R,0.042820X0.064230*%
%ADD194R,0.042800X0.064200*%
%ADD195R,0.042900X0.064240*%
%ADD196R,0.042900X0.064180*%
%ADD197R,0.042760X0.064240*%
%ADD198R,0.042760X0.064180*%
%ADD199R,0.042900X0.064230*%
%ADD200R,0.064230X0.077090*%
%ADD201R,0.064240X0.077100*%
%ADD202R,0.064230X0.077100*%
%ADD203R,0.064180X0.077040*%
%ADD204R,0.064230X0.077040*%
%ADD205R,0.077100X0.064240*%
%ADD206R,0.077100X0.064180*%
%ADD207R,0.077100X0.064190*%
%ADD208R,0.077090X0.064240*%
%ADD209R,0.077090X0.064190*%
%ADD210R,0.077040X0.064240*%
%ADD211R,0.077040X0.064180*%
%ADD212R,0.077030X0.064180*%
%ADD213R,0.077030X0.064240*%
%ADD214R,0.107040X0.064240*%
%ADD215R,0.107040X0.064230*%
%ADD216R,0.064230X0.107040*%
%ADD217R,0.080513X0.106990*%
%ADD218R,0.080512X0.107040*%
%ADD219R,0.080460X0.107040*%
%ADD220R,0.080510X0.107050*%
%ADD221R,0.080520X0.107050*%
%ADD222R,0.080500X0.107040*%
%ADD223R,0.080600X0.107050*%
%ADD224R,0.080500X0.107050*%
%ADD225R,0.080400X0.107040*%
%ADD226R,0.081320X0.064230*%
%ADD227R,0.094190X0.059890*%
%ADD228R,0.094190X0.059910*%
%ADD229R,0.094180X0.059960*%
%ADD230R,0.094180X0.059940*%
%ADD231R,0.059940X0.094180*%
%ADD232R,0.059900X0.094180*%
%ADD233R,0.059960X0.094180*%
%ADD234R,0.059900X0.094200*%
%ADD235R,0.059960X0.094200*%
%ADD236R,0.042810X0.098470*%
%ADD237R,0.042810X0.098420*%
%ADD238R,0.042800X0.098420*%
%ADD239R,0.042860X0.098480*%
%ADD240R,0.042800X0.098470*%
%ADD241R,0.042860X0.098420*%
%ADD242R,0.042860X0.098470*%
%ADD243R,0.124200X0.042800*%
%ADD244R,0.042806X0.124120*%
%ADD245R,0.042806X0.124190*%
%ADD246R,0.042800X0.124140*%
%ADD247R,0.042810X0.124140*%
%ADD248R,0.042810X0.124130*%
%ADD249R,0.042810X0.124180*%
%ADD250R,0.042800X0.124130*%
%ADD251R,0.042800X0.124180*%
%ADD253C,0.012844*%
%LPD*%
D53*
X91366Y44876D03*
D55*
X87256Y44961D03*
D52*
X80491Y44876D03*
X81433D03*
D56*
X83574D03*
X79035Y44961D03*
D19*
X18680Y45133D03*
D189*
X70044Y45107D03*
D183*
X72271Y45021D03*
D192*
X73127Y44850D03*
D182*
X71072Y44765D03*
X69017Y44816D03*
D192*
X67989Y45158D03*
D70*
X94851Y45167D03*
D48*
X13229Y44491D03*
D161*
X54939Y41879D03*
D60*
X55916Y14277D03*
D109*
X82674Y44234D03*
D130*
Y42693D03*
D103*
Y39525D03*
G36*
X82220Y37170D02*
G01X83076D01*
Y37162D01*
X82220D01*
G37*
G36*
Y37170D02*
G01X83076D01*
Y37162D01*
X82220D01*
G37*
D20*
X23290Y34259D03*
D23*
X22948Y36999D03*
D160*
X23393Y41879D03*
D20*
X23290Y32547D03*
Y27410D03*
D52*
X57457Y56263D03*
X57542Y55578D03*
D20*
X29627Y51554D03*
D19*
X29799Y55150D03*
Y55835D03*
D20*
X29627Y61657D03*
X20893Y36143D03*
X19266Y36229D03*
D19*
X16612D03*
X13871Y36143D03*
D20*
X12587D03*
D19*
X11945Y35715D03*
D52*
X56001Y72872D03*
D54*
X55830Y65681D03*
D52*
X12245Y56520D03*
D219*
X16569Y59944D03*
X14428D03*
D104*
X13614Y53438D03*
D19*
X17125Y52581D03*
D226*
X27230Y52470D03*
D19*
X19609Y33146D03*
X20550Y33318D03*
X22092Y33403D03*
D24*
X21235Y33746D03*
D20*
X22434Y32547D03*
X13229Y32290D03*
X12587Y33574D03*
Y32718D03*
D19*
X13871D03*
D20*
X13229Y33146D03*
D19*
X13871Y33574D03*
X19009Y32547D03*
D20*
X19865D03*
X20722D03*
D19*
X21578D03*
X15413Y33917D03*
D20*
X13229Y34003D03*
X22434Y34431D03*
D19*
X18667D03*
D23*
X20222Y35130D03*
D19*
X22092Y35629D03*
D20*
X20379Y35886D03*
X15755Y35715D03*
D19*
X16098Y35287D03*
D20*
X17810Y35116D03*
X15755Y34859D03*
X12587Y35287D03*
Y34431D03*
D19*
X13871D03*
D20*
X13229Y34859D03*
D19*
X13871Y35287D03*
D20*
X13229Y35715D03*
X51463Y32376D03*
D91*
X52242Y32359D03*
D80*
X42429D03*
D53*
X47335D03*
D55*
X48140Y38027D03*
D20*
X27058Y38112D03*
D78*
X33502Y38048D03*
D71*
X25624D03*
D101*
X33909Y21845D03*
D105*
Y23729D03*
D55*
X25346Y67650D03*
D220*
X25303Y69362D03*
D163*
X25226Y74396D03*
D53*
X83745Y66109D03*
D32*
X83848Y75390D03*
D39*
X100186D03*
D189*
X95733Y71015D03*
Y72162D03*
D35*
X95519Y75390D03*
D32*
X95990Y74431D03*
D20*
X95733Y68934D03*
Y69790D03*
D192*
X105153Y72162D03*
Y71015D03*
D140*
X105000Y67253D03*
D69*
X105153Y69790D03*
D37*
X104853Y75390D03*
D24*
X105152Y68934D03*
D188*
X38190Y71015D03*
Y72162D03*
D74*
X38276Y66665D03*
D73*
Y66237D03*
Y65809D03*
Y65381D03*
Y64953D03*
D84*
Y64525D03*
D83*
Y64097D03*
Y63669D03*
D71*
Y63241D03*
D32*
X38378Y74414D03*
D47*
X27649Y74842D03*
D34*
X34183Y75373D03*
D30*
X33249D03*
D31*
X32316D03*
D32*
X31382D03*
X30449D03*
X37916D03*
D35*
X36983D03*
D30*
X36049D03*
D32*
X35116D03*
D189*
X69017Y71015D03*
Y72162D03*
D19*
X59812Y70946D03*
D188*
X64735Y71015D03*
D192*
X65592D03*
D189*
X66448D03*
X67304D03*
D192*
X68161D03*
D189*
X63879D03*
X63023D03*
D188*
X62166D03*
X57542D03*
D189*
X56686D03*
D30*
X67467Y75390D03*
D34*
X66534D03*
D31*
X65600D03*
D30*
X64667D03*
D35*
X57208D03*
D31*
X58142D03*
X59075D03*
D30*
X60009D03*
D31*
X60942D03*
X61875D03*
X62800D03*
X63733D03*
D55*
X77580Y67479D03*
D231*
X77563Y72701D03*
D230*
X77323Y66862D03*
D229*
Y68609D03*
D30*
Y75390D03*
D35*
X77785Y74431D03*
D55*
X89653Y69105D03*
D129*
X89568Y66451D03*
D134*
Y68335D03*
D49*
X89448Y74859D03*
D193*
X100014Y72162D03*
D189*
X99158D03*
X98302D03*
X97445D03*
X96589D03*
D32*
X99252Y75390D03*
D30*
X96923Y74431D03*
D31*
X97856D03*
D32*
X98790D03*
X99723D03*
X96452Y75390D03*
X97386D03*
D30*
X98319D03*
D192*
X100872Y72162D03*
X101728D03*
X102584D03*
D199*
X103440D03*
D192*
X104297D03*
D37*
X100649Y74431D03*
X101582D03*
X101120Y75390D03*
X102053D03*
D38*
X102986D03*
D37*
X103920D03*
X104382Y74431D03*
X103449D03*
D38*
X102515D03*
D24*
X101727Y44705D03*
Y39311D03*
Y30835D03*
Y28095D03*
D225*
X101685Y35287D03*
D59*
X101727Y36657D03*
D26*
X102584D03*
D51*
X105170Y35201D03*
Y37564D03*
D46*
X104725Y39910D03*
D37*
X105684Y43172D03*
Y42239D03*
Y41314D03*
Y40381D03*
X104725Y42710D03*
Y43643D03*
Y41777D03*
Y40843D03*
D65*
X24387Y71417D03*
D42*
X20756Y72890D03*
X11123D03*
D28*
X9761Y70903D03*
X7706D03*
X5651D03*
D29*
X4281D03*
D20*
X22708Y71417D03*
D41*
X6362Y73806D03*
D40*
X3835D03*
Y72119D03*
D41*
X8888D03*
X8049Y72958D03*
D165*
X22691Y74396D03*
D166*
X23959Y75741D03*
D42*
X15027Y76640D03*
G36*
X2466Y77654D02*
G01Y76798D01*
X2458D01*
Y77654D01*
G37*
G36*
X2462Y77658D02*
G01X3318D01*
Y77650D01*
X2462D01*
G37*
G36*
Y77658D02*
G01X3318D01*
Y77650D01*
X2462D01*
G37*
G36*
X2466Y77654D02*
G01Y76798D01*
X2458D01*
Y77654D01*
G37*
D40*
X7201Y76331D03*
D41*
X6362D03*
X5523D03*
D160*
X23393Y66922D03*
D19*
X13871Y29294D03*
D20*
X12587D03*
D55*
X21921Y30664D03*
D19*
X19009Y30150D03*
X19609D03*
D20*
X20293D03*
Y30835D03*
X22434Y31862D03*
D19*
X13871D03*
D20*
X13229Y31434D03*
D19*
X13871Y31006D03*
D20*
X13229Y30578D03*
D19*
X13871Y30150D03*
D20*
X13229Y29722D03*
X12587Y31862D03*
Y31006D03*
Y30150D03*
D19*
X37420Y34602D03*
D24*
X30141Y33746D03*
Y32547D03*
D53*
X39903Y42650D03*
D52*
X32025Y69020D03*
D221*
X27444Y69362D03*
D209*
X37334Y69080D03*
D207*
X32967D03*
D184*
X36478D03*
D185*
X35621D03*
D56*
X42386Y61657D03*
D187*
X42300Y45278D03*
D20*
X35621Y55835D03*
D73*
X36931Y55920D03*
D76*
X30543D03*
D20*
X36649Y41109D03*
D19*
X32795D03*
D20*
X26545Y41280D03*
D21*
X36135Y58746D03*
Y57547D03*
Y56862D03*
D20*
X31511Y67821D03*
D189*
X45040Y71015D03*
X44184D03*
D188*
X43328D03*
D192*
X42472D03*
D189*
X41615D03*
D188*
X40759D03*
D192*
X39903D03*
X39047D03*
D148*
X46111Y71314D03*
D52*
X44955Y67136D03*
D53*
X39047D03*
D19*
X41444D03*
D20*
X48980Y28951D03*
D19*
X49579D03*
X50264D03*
X51292D03*
X48123D03*
X47096Y28780D03*
D23*
X43157D03*
D52*
X49322Y47872D03*
Y52753D03*
D79*
X44304Y49499D03*
D54*
X49236Y35116D03*
D20*
X43842Y34944D03*
D124*
X53492Y53549D03*
X53064D03*
X52636D03*
D122*
X52208D03*
X51780D03*
D126*
X51351D03*
D124*
X50923D03*
X50495D03*
X50067D03*
D122*
X49639D03*
G36*
X54011Y53503D02*
G01Y53886D01*
X54052Y53845D01*
Y53543D01*
G37*
G36*
X54011Y53886D02*
G01X54737D01*
X54697Y53845D01*
X54052D01*
G37*
G36*
X54737Y53886D02*
G01Y53523D01*
X54697D01*
Y53845D01*
G37*
D53*
X49750Y47958D03*
D19*
X50264Y48985D03*
D91*
X54117Y48215D03*
Y47787D03*
Y47359D03*
Y46931D03*
Y46503D03*
Y46075D03*
Y45647D03*
Y45218D03*
D20*
X53090Y48985D03*
D90*
X54117Y48643D03*
D89*
Y49071D03*
D56*
X83574Y46588D03*
D201*
X83771Y49670D03*
D182*
X83403Y61254D03*
D102*
X83531Y47402D03*
D20*
X66277Y67650D03*
X66234Y64910D03*
D52*
X71928Y69448D03*
X69702Y69534D03*
X70729D03*
X71243D03*
D56*
X83146Y57804D03*
D52*
X76381Y57718D03*
X63194D03*
D56*
X57970D03*
D170*
X70618Y57804D03*
X69471D03*
D189*
X96504Y59970D03*
D184*
Y61117D03*
D204*
X89114Y38626D03*
X87967D03*
D203*
X84661D03*
X83514D03*
D176*
X92368Y38455D03*
D181*
X91220D03*
D80*
X96504Y38497D03*
D95*
X98388D03*
D140*
X102431Y67253D03*
X102860D03*
X103288D03*
X103716D03*
X104144D03*
X104572D03*
D192*
X106008Y71015D03*
Y72162D03*
G36*
X109370Y77650D02*
G01X108514D01*
Y77658D01*
X109370D01*
G37*
G36*
X109374Y77654D02*
G01Y76798D01*
X109365D01*
Y77654D01*
G37*
G36*
X109374D02*
G01Y76798D01*
X109365D01*
Y77654D01*
G37*
G36*
X109370Y77650D02*
G01X108514D01*
Y77658D01*
X109370D01*
G37*
G36*
X107807Y71825D02*
G01X107101D01*
X107142Y71865D01*
X107807D01*
G37*
G36*
X107101Y71825D02*
G01Y72188D01*
X107142D01*
Y71865D01*
G37*
G36*
X107101Y72188D02*
G01Y72550D01*
X107142Y72510D01*
Y72188D01*
G37*
G36*
X107101Y72550D02*
G01X107827D01*
X107786Y72510D01*
X107142D01*
G37*
G36*
X107827Y72550D02*
G01Y72188D01*
X107786D01*
Y72510D01*
G37*
G36*
X107827Y72188D02*
G01Y71845D01*
X107786D01*
Y72188D01*
G37*
G36*
X107807Y72167D02*
G01X107122D01*
Y72208D01*
X107807D01*
G37*
D38*
X105315Y74431D03*
D51*
X107653Y74859D03*
D55*
X107636Y73215D03*
D185*
X8134Y52436D03*
D184*
X7278D03*
D143*
X9347Y52637D03*
D19*
X5737Y52333D03*
D28*
X4880D03*
D52*
X3082Y16537D03*
G36*
X2458Y12235D02*
G01Y13091D01*
X2466D01*
Y12235D01*
G37*
G36*
X2462Y12239D02*
G01X3318D01*
Y12231D01*
X2462D01*
G37*
G36*
X2458Y12235D02*
G01Y13091D01*
X2466D01*
Y12235D01*
G37*
G36*
X2462Y12239D02*
G01X3318D01*
Y12231D01*
X2462D01*
G37*
G36*
X5717Y14653D02*
G01Y14996D01*
X5757D01*
Y14653D01*
G37*
G36*
X5717Y14996D02*
G01Y15358D01*
X5757Y15318D01*
Y14996D01*
G37*
G36*
X5717Y15358D02*
G01X6442D01*
X6401Y15318D01*
X5757D01*
G37*
G36*
X6442Y15358D02*
G01Y14996D01*
X6401D01*
Y15318D01*
G37*
G36*
X6442Y14996D02*
G01Y14633D01*
X6401Y14674D01*
Y14996D01*
G37*
G36*
X6442Y14633D02*
G01X5737D01*
Y14674D01*
X6401D01*
G37*
G36*
X5737Y15016D02*
G01X6421D01*
Y14976D01*
X5737D01*
G37*
D52*
X6079Y14140D03*
D53*
X8391Y30150D03*
D20*
X8648Y29722D03*
D19*
X8305Y30749D03*
D20*
X8134Y31948D03*
X8220Y33318D03*
D19*
X7877Y35030D03*
X11945Y28866D03*
Y29722D03*
Y30578D03*
Y31434D03*
Y32290D03*
Y33146D03*
Y34003D03*
Y34859D03*
X4281Y47616D03*
D101*
X6936Y46503D03*
D102*
X6507D03*
X6079D03*
X5651D03*
D101*
X5223D03*
X4795D03*
X4367D03*
D102*
X3938D03*
D101*
X7364D03*
D20*
X7535Y47359D03*
D101*
X7792Y46503D03*
D54*
X13529Y47016D03*
D53*
X8905Y47188D03*
D52*
X12587Y47273D03*
X8049Y47359D03*
D102*
X12758Y46503D03*
D101*
X12330D03*
D107*
X11902D03*
D101*
X8905D03*
X9333D03*
X9761D03*
D102*
X10189D03*
X10617D03*
D101*
X11046D03*
X11474D03*
D53*
X13357Y49585D03*
D54*
X9333Y48814D03*
X10874Y51725D03*
D19*
X8391Y49499D03*
D102*
X12758Y49756D03*
D101*
X8905D03*
X12330D03*
D107*
X11902D03*
D101*
X11474D03*
X11046D03*
D102*
X10617D03*
X10189D03*
D101*
X9761D03*
X9333D03*
D53*
X29199Y50355D03*
D21*
X19716Y50289D03*
D19*
X19042D03*
D113*
X13871Y46503D03*
D102*
X14300D03*
X14728D03*
D114*
X15156D03*
D113*
X15584D03*
D101*
X16012D03*
X16440D03*
D102*
X14728Y49756D03*
X14300D03*
D113*
X13871D03*
D114*
X15156D03*
D113*
X15584D03*
D101*
X16012D03*
X16440D03*
D102*
X16869Y46503D03*
Y49756D03*
D57*
X22092Y24414D03*
D20*
X20893Y24328D03*
X16868Y24242D03*
D19*
X15584D03*
D57*
X22092Y28609D03*
D20*
X19865Y28438D03*
D19*
X19009D03*
X16612Y28266D03*
D20*
X17810Y26212D03*
D48*
X13229Y27367D03*
D20*
X22434Y27410D03*
D19*
X21578D03*
D20*
X20722D03*
X19865D03*
X13229Y28866D03*
D64*
X19009Y27410D03*
D103*
X17682Y23386D03*
D104*
X17254D03*
X16826D03*
D105*
X18538Y20133D03*
X18110D03*
X17682D03*
D106*
X17254D03*
X16826D03*
D103*
X18110Y23386D03*
X18538D03*
D187*
X8134Y55895D03*
D182*
X7278D03*
D145*
X9689Y55694D03*
X9004D03*
D109*
X11046Y55766D03*
X11474D03*
D110*
X11902D03*
D109*
X12330D03*
D111*
X12758D03*
D112*
X13186D03*
D111*
X13614D03*
D109*
X14043D03*
X14471D03*
X14899D03*
D111*
X15327D03*
D112*
X15755D03*
D103*
X25602Y55578D03*
X25174D03*
X24746D03*
X24318D03*
D19*
X19042Y55680D03*
D21*
X19716D03*
D108*
X23034Y55578D03*
D104*
X23462D03*
X23890D03*
D19*
X21150Y54123D03*
D101*
X29563Y44555D03*
D20*
X27058Y34431D03*
D103*
X26994Y36678D03*
D20*
X29113Y35116D03*
Y35801D03*
D19*
X28343Y37855D03*
D20*
X27914Y35801D03*
D19*
X27743Y34602D03*
D104*
X28279Y36678D03*
X28707D03*
D24*
X27572Y32547D03*
D19*
X29285D03*
D23*
X28428D03*
D103*
X27850Y36678D03*
X27422D03*
D108*
X29991D03*
D103*
X29563D03*
X29135D03*
D21*
X36135Y54123D03*
D206*
X35964Y50415D03*
D205*
Y49268D03*
D20*
X31682Y54465D03*
X31511Y55321D03*
D117*
X31597Y53155D03*
D54*
X31426Y56348D03*
Y62342D03*
D52*
X32110Y62598D03*
D19*
X31854Y57205D03*
X31340Y57547D03*
X31854Y61143D03*
D75*
X30543Y58917D03*
D76*
Y58489D03*
Y58061D03*
D77*
Y57633D03*
D76*
Y57205D03*
Y56777D03*
Y56348D03*
D103*
X31168Y59542D03*
D119*
X31597D03*
D104*
X32025D03*
D53*
X32367Y61657D03*
D103*
X32453Y59542D03*
D20*
X34080Y58746D03*
D23*
X34765D03*
D19*
X35450D03*
D20*
X35107Y57547D03*
X35621Y57205D03*
Y56520D03*
X35107Y56177D03*
D103*
X35878Y59542D03*
X35450D03*
X35022D03*
D20*
X33224Y56349D03*
D103*
X32881Y59542D03*
X33309D03*
X33737D03*
D104*
X34166D03*
X34594D03*
D21*
X33738Y53951D03*
D105*
X33737Y53155D03*
D183*
X40331Y26151D03*
G36*
X43776Y26317D02*
G01Y25955D01*
X43736D01*
Y26277D01*
G37*
G36*
X43051Y25955D02*
G01Y26317D01*
X43091Y26277D01*
Y25955D01*
G37*
D53*
X41615Y53780D03*
X39047Y54722D03*
D55*
X38190D03*
D175*
X40614Y51640D03*
D172*
X41761D03*
D73*
X36931Y55492D03*
Y55064D03*
Y54636D03*
Y54208D03*
Y53780D03*
D19*
X39047Y53095D03*
X41615D03*
D105*
X36306Y53155D03*
D101*
X41059Y50099D03*
D124*
Y46845D03*
D105*
Y48729D03*
D53*
X42043Y47872D03*
D182*
X41444Y45278D03*
D125*
X41487Y46845D03*
D124*
X41915D03*
D123*
X42343D03*
D127*
X41487Y48729D03*
D105*
X41915D03*
D117*
X42343D03*
D114*
Y50099D03*
D101*
X41915D03*
D128*
X41487D03*
D20*
X49322Y38712D03*
D102*
X49211Y43737D03*
D53*
X51398Y36421D03*
D56*
X41230Y37556D03*
D120*
X46051Y37265D03*
D121*
X45623D03*
D130*
X45195D03*
X44767D03*
X44338D03*
D121*
X43910D03*
X43054D03*
D120*
X43482D03*
D52*
X42305Y37389D03*
D78*
X42429Y36640D03*
D121*
X46479Y37265D03*
D130*
X46907D03*
D131*
X47335D03*
D20*
X52062Y37170D03*
X52576Y37513D03*
D121*
X51617Y37265D03*
D120*
X51189D03*
D130*
X50760D03*
X50332D03*
X49904D03*
X49476D03*
D121*
X49048D03*
D89*
X52242Y36640D03*
D130*
X47763Y37265D03*
D121*
X48192D03*
D120*
X48620D03*
D20*
X43328Y28266D03*
G36*
X43051Y26317D02*
G01X43776D01*
X43736Y26277D01*
X43091D01*
G37*
D104*
X43482Y27453D03*
D52*
X54117Y26211D03*
D53*
X49579Y26725D03*
D103*
X49476Y27453D03*
X49904D03*
X50332D03*
X50760D03*
D104*
X51189D03*
X51617D03*
D52*
X52366Y27329D03*
D89*
X52242Y28506D03*
D90*
Y28078D03*
D52*
X53604Y41537D03*
D21*
X51891Y41623D03*
D52*
X53432Y41965D03*
D54*
X53261Y42393D03*
D19*
X52747Y41879D03*
D102*
X49639Y43737D03*
D101*
X50067D03*
X50495D03*
D92*
X54117Y44790D03*
D91*
Y44362D03*
D53*
X54241Y43613D03*
D101*
X53492Y43737D03*
X53064D03*
X52636D03*
D102*
X52208D03*
X51780D03*
X51351D03*
D101*
X50923D03*
D53*
X58827Y63540D03*
D23*
X59597D03*
D22*
X60454Y65595D03*
D79*
X58054Y66204D03*
Y65776D03*
D78*
Y65348D03*
D80*
Y64919D03*
Y64491D03*
Y64063D03*
Y63635D03*
Y63207D03*
D52*
X68246Y54122D03*
D57*
X68417Y47787D03*
D55*
X73384Y63883D03*
X70815Y65424D03*
D215*
X76889Y63833D03*
D95*
X74302Y63400D03*
Y63828D03*
Y64256D03*
D94*
Y64684D03*
D93*
Y65112D03*
D19*
X71671Y63883D03*
D20*
X75953D03*
D95*
X74302Y62972D03*
D55*
X69873Y65595D03*
D214*
X76889Y65323D03*
D94*
X74302Y65540D03*
D52*
X74497Y61143D03*
D53*
X90938Y41708D03*
X80148Y51297D03*
Y51725D03*
D30*
X86194Y74431D03*
D35*
X85252D03*
D34*
X84781Y75390D03*
D30*
X85715D03*
D32*
X86648D03*
X84319Y74431D03*
D45*
X87119D03*
D53*
X86828Y63883D03*
X83403Y41109D03*
Y41622D03*
D109*
X84387Y44234D03*
X83959D03*
D111*
X83531D03*
D112*
X83103D03*
D120*
Y42693D03*
D121*
X83531D03*
D130*
X83959D03*
D104*
X83103Y39525D03*
X83531D03*
D103*
X83959D03*
X84387D03*
D130*
Y42693D03*
D55*
X85629Y38711D03*
D103*
X84815Y39525D03*
X85243D03*
D104*
X85672D03*
X86100D03*
D121*
Y42693D03*
D120*
X85672D03*
D130*
X85243D03*
D111*
X86100Y44234D03*
D112*
X85672D03*
D109*
X85243D03*
X84815D03*
D130*
Y42693D03*
D55*
X87085Y38711D03*
D103*
X86528Y39525D03*
D108*
X86956D03*
D103*
X87384D03*
X87812D03*
D109*
Y44234D03*
X87384D03*
D110*
X86956D03*
D109*
X86528D03*
D130*
Y42693D03*
D131*
X86956D03*
D130*
X87384D03*
X87812D03*
D57*
X89482Y41622D03*
Y41109D03*
D104*
X88241Y39525D03*
D119*
X88669D03*
X89097D03*
D112*
X88241Y44234D03*
D116*
X88669D03*
X89097D03*
D135*
X89525D03*
D120*
X88241Y42693D03*
D133*
X88669D03*
X89097D03*
D132*
X89525D03*
D136*
Y39525D03*
D101*
X94962Y55492D03*
D102*
X95391D03*
X95819D03*
X96247D03*
X93678D03*
D101*
X94106D03*
D80*
X83942Y55835D03*
D101*
X94534Y55492D03*
D53*
X90938Y69362D03*
X90510D03*
X93079Y63455D03*
D20*
X93164Y68934D03*
D105*
X93079Y64482D03*
D103*
Y66366D03*
D55*
X97788Y67992D03*
D58*
X100015Y67907D03*
D104*
X96889Y66366D03*
D103*
X96461D03*
X96033D03*
D104*
X96889Y64996D03*
D103*
X96461D03*
X96033D03*
D101*
Y63112D03*
X96461D03*
D102*
X96889D03*
X97317D03*
D104*
Y66366D03*
Y64996D03*
D59*
X103354Y55749D03*
Y58232D03*
D142*
X103288Y61730D03*
D59*
X100357Y60544D03*
D198*
X100186Y58378D03*
D197*
Y57230D03*
D196*
X100443Y54439D03*
D195*
Y53292D03*
D59*
X106351Y49328D03*
D24*
Y59773D03*
D243*
X106334Y59174D03*
D195*
X106437Y52778D03*
D196*
Y53925D03*
D186*
X8134Y54747D03*
Y53583D03*
D183*
X7278D03*
Y54747D03*
D29*
X4324Y54807D03*
D28*
X5737Y52924D03*
X4255D03*
D19*
X5737Y53515D03*
X4880D03*
Y54217D03*
X5737D03*
Y54807D03*
Y55398D03*
X4880D03*
D52*
X13186Y54807D03*
D54*
X11474Y54208D03*
D52*
X10617Y54636D03*
X10532Y55064D03*
D20*
X12673Y52753D03*
D143*
X9347Y54949D03*
D144*
X9689Y53382D03*
D103*
X11046Y53438D03*
X11474D03*
D108*
X11902D03*
D103*
X12330D03*
D104*
X13186D03*
X12758D03*
D144*
X9004Y53382D03*
D52*
X29114Y56348D03*
X24832Y56177D03*
D20*
X29456Y57376D03*
D21*
X28942Y57718D03*
D19*
X29285Y58232D03*
Y58917D03*
D21*
X26373Y56006D03*
D20*
X22434D03*
D19*
X22606Y58061D03*
X27743Y58917D03*
D28*
X28428Y56006D03*
D65*
X27743Y57205D03*
D55*
X20979Y39996D03*
D52*
X14300Y41879D03*
D53*
X15926Y40167D03*
X16440D03*
D183*
X19437Y40878D03*
D186*
X17297D03*
D20*
X13229Y39996D03*
X12587Y40424D03*
Y41280D03*
D19*
X13871Y40424D03*
D20*
X13229Y40852D03*
D19*
X13871Y41280D03*
D20*
X13229Y41708D03*
D189*
X19437Y42025D03*
D188*
X17297D03*
D20*
X12587Y42136D03*
D19*
X13871D03*
D55*
X69873Y66194D03*
X70815Y66366D03*
X69787Y66879D03*
D53*
X70644Y67051D03*
D52*
X71329Y68506D03*
D120*
X71540Y67873D03*
D130*
X71112D03*
X70684D03*
X70256D03*
X69828D03*
D120*
X69399D03*
D53*
X72014Y68592D03*
D121*
X71968Y67873D03*
D55*
X101985Y55064D03*
X101898Y58403D03*
X101985Y61914D03*
D183*
X102156Y54439D03*
D182*
Y53292D03*
D139*
X101899Y57376D03*
D100*
X101810Y62351D03*
D140*
X101899Y59259D03*
D52*
X58484Y37855D03*
D55*
X56172Y20903D03*
D20*
X56600Y28780D03*
G36*
X57966Y12231D02*
G01X57110D01*
Y12239D01*
X57966D01*
G37*
G36*
X57970Y37166D02*
G01Y36310D01*
X57962D01*
Y37166D01*
G37*
G36*
Y12235D02*
G01Y13091D01*
X57970D01*
Y12235D01*
G37*
G36*
Y37166D02*
G01Y36310D01*
X57962D01*
Y37166D01*
G37*
G36*
X57966Y12231D02*
G01X57110D01*
Y12239D01*
X57966D01*
G37*
G36*
Y37170D02*
G01X58823D01*
Y37162D01*
X57966D01*
G37*
G36*
Y37170D02*
G01X58823D01*
Y37162D01*
X57966D01*
G37*
G36*
X57962Y12235D02*
G01Y13091D01*
X57970D01*
Y12235D01*
G37*
D56*
X26373Y64054D03*
D168*
X29002Y63198D03*
D170*
Y64054D03*
D73*
X30055Y63155D03*
Y64439D03*
Y64011D03*
Y63583D03*
D168*
X27855Y63198D03*
D170*
Y64054D03*
D20*
X31169Y64910D03*
D73*
X30055Y64867D03*
D170*
X27855Y64910D03*
X29002D03*
D53*
X30912Y67136D03*
D20*
X29113D03*
D19*
X27658Y67650D03*
D20*
X26887Y67136D03*
D21*
X25859Y66451D03*
D73*
X30055Y66580D03*
Y66152D03*
Y65723D03*
Y65295D03*
D171*
X27855Y65766D03*
D168*
Y66623D03*
X29002D03*
D171*
Y65766D03*
D21*
X37163Y63540D03*
D20*
X32025Y64396D03*
D172*
X35681Y64910D03*
D80*
X33309Y65723D03*
Y65295D03*
Y64867D03*
Y64439D03*
Y64011D03*
Y63583D03*
Y63155D03*
D169*
X34534Y63198D03*
X35681D03*
D172*
Y64054D03*
X34534D03*
Y64910D03*
D19*
X36478Y65766D03*
X37505D03*
D173*
X34534D03*
X35681D03*
D53*
X32282Y67136D03*
D19*
X38019D03*
X37334Y66623D03*
X36478D03*
D20*
X33224Y67136D03*
D208*
X37334Y67932D03*
D205*
X32967D03*
D187*
X35621D03*
D182*
X36478D03*
D169*
X35681Y66623D03*
X34534D03*
D80*
X33309Y66152D03*
Y66580D03*
D150*
X34265Y67791D03*
D145*
X33922Y68536D03*
X34607D03*
D53*
X45982Y63540D03*
D19*
X39560D03*
D86*
X41530Y64525D03*
D87*
Y64097D03*
Y63669D03*
D88*
Y63241D03*
D169*
X43268Y64568D03*
Y63712D03*
X44415D03*
Y64568D03*
D76*
X41530Y64953D03*
D19*
X39560Y65424D03*
D20*
X40759D03*
X42300Y65852D03*
D19*
X40416Y65938D03*
X42472Y66623D03*
X40502D03*
D76*
X41530Y65381D03*
Y65809D03*
Y66237D03*
D85*
Y66665D03*
D172*
X43268Y66280D03*
Y65424D03*
X44415D03*
Y66280D03*
D145*
X93520Y39880D03*
D53*
X95562Y39568D03*
D52*
X94192Y39739D03*
D57*
X94534Y41280D03*
D53*
X94020D03*
D56*
X93764Y43164D03*
D178*
X95450Y42735D03*
D175*
Y41879D03*
D147*
X94890Y39880D03*
D154*
X93863Y40625D03*
D153*
X94548D03*
D148*
Y38913D03*
D147*
X93863D03*
D145*
X95233D03*
D157*
Y40625D03*
D177*
X94303Y42735D03*
D172*
Y41879D03*
D52*
X22434Y37941D03*
D53*
X19009Y39225D03*
D20*
X20893Y36742D03*
D19*
X18581Y36999D03*
D20*
X21749D03*
D19*
X21150Y37342D03*
D20*
X19352Y37684D03*
D19*
X18495Y38712D03*
D20*
X19951Y36485D03*
D183*
X20122Y38138D03*
X20979D03*
Y39285D03*
X20122D03*
D33*
X31854Y74414D03*
D32*
X30920D03*
X29987D03*
X32787D03*
X33720D03*
D34*
X34654D03*
D32*
X35578D03*
D33*
X36512D03*
D30*
X37445D03*
D192*
X37334Y72162D03*
X36478D03*
D188*
X35621D03*
D192*
X34765D03*
D193*
X33909D03*
D189*
X33053D03*
D192*
X27915D03*
X27058D03*
X26202D03*
X28771D03*
X29627D03*
D189*
X30484D03*
X31340D03*
D192*
X32196D03*
D52*
X41187Y41280D03*
D53*
X43499Y41794D03*
Y42393D03*
D56*
X40245Y42650D03*
D53*
X42643Y43078D03*
X42985Y43420D03*
Y44277D03*
D20*
X43842Y42821D03*
X44184Y42307D03*
D192*
X41187Y41905D03*
Y43052D03*
D188*
X42300Y44131D03*
D189*
X41444D03*
X40588D03*
D23*
X44441Y43677D03*
D19*
X44527Y42821D03*
D81*
X44304Y44790D03*
D80*
Y44362D03*
D55*
X39346Y42949D03*
D53*
X31854Y41622D03*
D21*
X37163Y41623D03*
D80*
X33502Y42757D03*
Y42329D03*
Y41901D03*
Y41473D03*
Y43185D03*
D20*
X35621Y44705D03*
X34594Y43677D03*
X36563D03*
D81*
X33502Y44041D03*
D80*
Y43613D03*
D21*
X32710Y43677D03*
D107*
X29991Y44555D03*
D101*
X30419D03*
D102*
X30847D03*
X31276D03*
D101*
X31704D03*
X32132D03*
X32560D03*
X32988D03*
D189*
X39389Y44131D03*
D54*
X43585Y58403D03*
D55*
X42900Y57975D03*
D52*
X43242Y58318D03*
X42814Y59003D03*
D53*
X42643Y59345D03*
D57*
X43157Y59516D03*
D200*
X43045Y60886D03*
D182*
X43243Y56922D03*
D189*
Y55775D03*
D102*
X42771Y50099D03*
D173*
X43268Y61999D03*
D189*
X43243Y51494D03*
D183*
Y52641D03*
D189*
Y53634D03*
D183*
Y54782D03*
D52*
X43842Y60801D03*
X43756Y57718D03*
D53*
X38841Y73643D03*
D19*
X41615Y72958D03*
D43*
X40245Y74414D03*
D31*
X39312D03*
X38849Y75373D03*
D30*
X39783D03*
D192*
X42472Y72162D03*
D189*
X41615D03*
D188*
X40759D03*
D192*
X39903D03*
X39047D03*
D49*
X42583Y74842D03*
D143*
X45768Y72059D03*
D144*
X46453D03*
D163*
X44955Y74396D03*
D166*
X46222Y75741D03*
D189*
X45040Y72162D03*
X44184D03*
D188*
X43328D03*
D55*
X48808Y52410D03*
D53*
X48123D03*
X47010D03*
D57*
X46582Y52324D03*
D126*
X49211Y53549D03*
X48783D03*
D124*
X48354D03*
X47926D03*
X45357D03*
D129*
X45785D03*
D122*
X46214D03*
D126*
X46642D03*
D122*
X47070D03*
D124*
X47498D03*
D182*
X48979Y56922D03*
D189*
Y55775D03*
D192*
X48123D03*
D182*
X45554Y56922D03*
X46410D03*
X47267D03*
X48123D03*
D189*
X45554Y55775D03*
X46410D03*
D192*
X47267D03*
D53*
X50692Y59944D03*
D55*
X49836D03*
D52*
X50863Y60372D03*
D55*
X49836Y60544D03*
D182*
Y59148D03*
X50692D03*
D192*
X49836Y55775D03*
X50692D03*
D182*
Y56922D03*
X49836D03*
Y58001D03*
X50692D03*
D20*
X51548Y59944D03*
D182*
Y59148D03*
D192*
Y55775D03*
D182*
Y56922D03*
Y58001D03*
D54*
X56686Y73301D03*
D55*
X57585Y73001D03*
D56*
X58527Y72915D03*
D219*
X60882Y71545D03*
D218*
X58741D03*
D32*
X58604Y74431D03*
X57662D03*
D35*
X59538D03*
D30*
X60471D03*
D32*
X61404D03*
D44*
X56737D03*
D189*
X56686Y72162D03*
D188*
X57542D03*
D32*
X62338Y74431D03*
D188*
X62166Y72162D03*
D20*
X67818Y72787D03*
D192*
X68161Y72162D03*
D189*
X67304D03*
X66448D03*
D192*
X65592D03*
D188*
X64735D03*
D189*
X63879D03*
D31*
X65138Y74431D03*
D30*
X64204D03*
D32*
X63271D03*
X66071D03*
D31*
X67013D03*
X67938D03*
D189*
X63023Y72162D03*
D103*
X81390Y39525D03*
X81818D03*
X82246D03*
D182*
X73469Y39336D03*
D53*
X72014Y72787D03*
Y73643D03*
D49*
X73589Y74859D03*
D50*
X70267D03*
D32*
X76390Y75390D03*
X75919Y74431D03*
D30*
X76843D03*
D54*
X80234Y57975D03*
D213*
X80063Y61254D03*
D103*
X80320Y59028D03*
D52*
X81433Y58061D03*
Y60030D03*
D20*
X80577Y60629D03*
D237*
X81775Y61288D03*
D103*
X83317Y59028D03*
X82889D03*
D104*
X82460D03*
X82032D03*
X81604D03*
D103*
X81176D03*
X80748D03*
D76*
X77554Y53694D03*
D54*
X89396Y58061D03*
Y57376D03*
D55*
X89739Y69619D03*
D20*
X90595Y70218D03*
X92308Y69790D03*
D19*
X91452D03*
D192*
Y71015D03*
X92308D03*
X91452Y72162D03*
X92308D03*
D47*
X92719Y74859D03*
D20*
X93164Y69790D03*
D189*
Y71015D03*
Y72162D03*
D45*
X95056Y74431D03*
D20*
X94877Y69790D03*
D19*
X94020D03*
D189*
Y71015D03*
D192*
X94877D03*
D189*
X94020Y72162D03*
D192*
X94877D03*
D53*
X100100Y59859D03*
D57*
X99244Y59345D03*
D52*
X97446Y59174D03*
D54*
X98131Y59088D03*
D55*
X96932D03*
D242*
X97360Y58429D03*
D183*
X98645Y58378D03*
D168*
X97386Y62085D03*
X98533D03*
D184*
X99330Y61117D03*
X98473D03*
X97617D03*
D192*
Y59970D03*
X98473D03*
X99330D03*
D186*
X99415Y58378D03*
D53*
X92393Y60030D03*
X91965D03*
D52*
X91280Y60715D03*
D54*
X89910D03*
D52*
X90253Y62256D03*
X91109Y62427D03*
D176*
X94680Y62342D03*
X93532D03*
D187*
X93764Y60227D03*
D182*
X94620D03*
Y61374D03*
D187*
X93764D03*
D184*
X95648Y61117D03*
D189*
Y59970D03*
D52*
X97446Y44533D03*
D55*
X96932Y42564D03*
D52*
X97274Y40681D03*
D183*
X97445Y42761D03*
D80*
X96504Y40638D03*
Y40210D03*
Y39782D03*
D81*
Y39354D03*
D80*
Y38926D03*
Y41066D03*
D189*
X97445Y43908D03*
D59*
X106180Y52068D03*
X105752D03*
D55*
X105495Y51554D03*
Y49328D03*
D59*
X105923D03*
D55*
X103526Y51554D03*
X103868Y52324D03*
D182*
X105581Y52778D03*
D24*
X104810Y49927D03*
D51*
X105170Y45989D03*
D182*
X103869Y53292D03*
X104725D03*
D183*
X105581Y53925D03*
D54*
X58913Y62684D03*
D52*
X31597Y62770D03*
D53*
X15584Y62684D03*
D250*
X50521Y62188D03*
X47952D03*
D244*
X11816Y62102D03*
D73*
X30055Y62727D03*
D80*
X33309D03*
D72*
X38276Y62812D03*
D75*
X41530D03*
D80*
X58054Y62779D03*
X63577D03*
D174*
X43268Y62855D03*
X44415D03*
D55*
X106095Y62684D03*
D52*
X94705Y62770D03*
D55*
X85629Y62684D03*
X86228D03*
D236*
X81775Y62710D03*
D99*
X101810Y62779D03*
X107333D03*
D183*
X78179Y62401D03*
X79035D03*
X84259D03*
X83403D03*
D186*
X85115D03*
D206*
X77152D03*
D212*
X80063D03*
D218*
X6722Y59602D03*
D20*
X7706Y57128D03*
D19*
X5737Y56691D03*
X4880Y56100D03*
X5737Y57282D03*
X4880D03*
D20*
X7115Y57967D03*
X7706Y58403D03*
D28*
X5737Y56100D03*
D29*
X4324Y56691D03*
D61*
X7115Y57128D03*
D217*
X6722Y61486D03*
X4581D03*
D218*
Y59602D03*
D53*
X11388Y56348D03*
D52*
X9248Y56520D03*
D53*
X9419Y57376D03*
X11902Y57718D03*
D54*
X9504Y57804D03*
X10960Y60372D03*
D52*
X10275Y61314D03*
X11303Y61828D03*
D245*
X8733Y61040D03*
D244*
Y59191D03*
D237*
X10361Y58087D03*
D236*
Y56665D03*
D21*
X11816Y59123D03*
D20*
X8297Y57967D03*
Y57128D03*
D62*
X11816Y60801D03*
D56*
X80645Y64414D03*
X78094Y70218D03*
X78607D03*
X79378Y68848D03*
D54*
X77751Y65595D03*
D56*
X79378Y64910D03*
X78607Y64396D03*
D52*
X77836Y63883D03*
D232*
X79309Y72701D03*
D32*
X79652Y74431D03*
D30*
X78719D03*
D32*
X79190Y75390D03*
X78256D03*
X80123D03*
D68*
X79464Y70218D03*
D219*
X79763Y64097D03*
D19*
X80662Y63883D03*
D235*
X80645Y65595D03*
D233*
Y66965D03*
D32*
X80586Y74431D03*
D30*
X81056Y75390D03*
D53*
X83403Y63883D03*
X81176D03*
X81690Y65595D03*
X83317Y66965D03*
D56*
X81519Y67650D03*
D234*
X82392Y65595D03*
D232*
Y66965D03*
D222*
X81904Y64097D03*
D32*
X82915Y75390D03*
X83386Y74431D03*
X82452D03*
D36*
X81519D03*
D19*
X81142Y70218D03*
D30*
X81981Y75390D03*
D189*
X83231Y68275D03*
D182*
Y69422D03*
D52*
X13700Y57975D03*
D56*
X15327Y56862D03*
D52*
X12758Y56520D03*
X13614D03*
D53*
X14043D03*
D56*
X15327Y56348D03*
D240*
X14557Y56862D03*
D145*
X12501Y57975D03*
D146*
X13186D03*
D144*
X12844Y57230D03*
D238*
X14557Y58283D03*
D53*
X16012Y57975D03*
D241*
X16783Y56837D03*
D19*
X19042Y56354D03*
D21*
X19716D03*
Y57028D03*
D19*
X19042D03*
D21*
X19716Y59723D03*
D19*
X19042D03*
Y59049D03*
D21*
X19716D03*
Y58375D03*
D19*
X19042D03*
D21*
X19716Y57701D03*
D19*
X19042D03*
D239*
X16783Y58258D03*
D53*
X99758Y50783D03*
X98644D03*
Y49927D03*
D52*
X97446Y47359D03*
D56*
X98302D03*
D54*
X99158Y47188D03*
D182*
X98302Y46477D03*
X97445D03*
D184*
Y45330D03*
X98302D03*
D52*
X9162Y62941D03*
D19*
X9898Y63198D03*
D29*
X4281Y65766D03*
D28*
X5651D03*
X9761D03*
X7706D03*
D61*
X8220Y63198D03*
D246*
X11816Y63951D03*
D247*
X14385Y63780D03*
D248*
X16954Y63438D03*
D31*
X16098Y64653D03*
D30*
X18667D03*
D31*
X17810D03*
D32*
X16954D03*
D190*
X22520Y64336D03*
D191*
Y65484D03*
D183*
X24746D03*
D182*
Y64336D03*
D205*
X23633D03*
D206*
Y65484D03*
D53*
X49664Y71331D03*
X48551Y72359D03*
D244*
X50778Y70835D03*
D19*
X47609Y69533D03*
D21*
X48466D03*
D20*
X49322D03*
D19*
X50178D03*
D164*
X49236Y74396D03*
D165*
X47489D03*
D244*
X48037Y70835D03*
D245*
Y72684D03*
X50778D03*
D21*
X51035Y69533D03*
D167*
X50504Y75741D03*
D52*
X54117Y73301D03*
D56*
X54973Y72872D03*
X52405D03*
D20*
X53604Y69533D03*
D19*
X52747D03*
D21*
X51891D03*
X54460D03*
D50*
X54408Y74859D03*
D163*
X51771Y74396D03*
D59*
X104724Y55064D03*
X104981Y55920D03*
D55*
X105066Y56691D03*
X104125Y56777D03*
D59*
X104810Y57290D03*
X105152Y57804D03*
D183*
X104725Y54439D03*
D147*
X104138Y55548D03*
D156*
X104481Y56293D03*
D158*
X103796D03*
D139*
X103611Y57376D03*
D183*
X103869Y54439D03*
D251*
X106180Y55253D03*
D244*
Y57102D03*
D55*
X104382Y59688D03*
X103954Y60030D03*
D142*
X106285Y61730D03*
X105856D03*
X105429D03*
D140*
X103611Y59259D03*
D142*
X103716Y61730D03*
X104144D03*
X104572D03*
X105000D03*
D243*
X104485Y59174D03*
D20*
X8220Y14225D03*
X8134Y21674D03*
X8049Y25355D03*
D106*
X9633Y20133D03*
X9205D03*
D105*
X8776D03*
X8348D03*
X7920D03*
D104*
X9633Y23386D03*
X9205D03*
D103*
X8776D03*
X8348D03*
X7920D03*
D20*
X10104Y20989D03*
Y22530D03*
Y24413D03*
D106*
X10061Y20133D03*
D104*
Y23386D03*
D20*
X10104Y26126D03*
D53*
X11816Y24242D03*
D20*
X10275Y16879D03*
X11131Y20989D03*
D21*
X11816Y26126D03*
D104*
X12116Y23386D03*
D106*
Y20133D03*
X11688D03*
D104*
Y23386D03*
D105*
X12544Y20133D03*
D103*
Y23386D03*
X12972D03*
X13400D03*
X13828D03*
D105*
Y20133D03*
X13400D03*
X12972D03*
D56*
X16269Y22701D03*
D19*
X15630Y20989D03*
D104*
X14257Y23386D03*
X14685D03*
D103*
X15113D03*
X15541D03*
D105*
Y20133D03*
X15113D03*
D106*
X14685D03*
X14257D03*
D19*
X14385Y14225D03*
D20*
X12587Y37855D03*
Y36999D03*
X13229Y36571D03*
D19*
X13871Y36999D03*
D20*
X13229Y37427D03*
D19*
X13871Y37855D03*
X15584Y37170D03*
X15413Y37770D03*
X16440D03*
X14899Y39568D03*
D20*
X12587D03*
Y38712D03*
X13229Y38283D03*
D19*
X13871Y38712D03*
D20*
X13229Y39140D03*
D19*
X13871Y39568D03*
X14899Y38712D03*
X15413Y39311D03*
D145*
X16283Y43647D03*
D146*
X15940Y44392D03*
D63*
X13872Y42992D03*
D20*
X13229Y42564D03*
X12587Y42992D03*
D145*
X16625Y44392D03*
D19*
X16612Y42821D03*
X17982D03*
X18667D03*
D20*
X19352D03*
D19*
X20037D03*
D20*
X20722D03*
X21321Y43677D03*
D145*
X17653Y43647D03*
X17310Y44392D03*
D147*
X19023Y43647D03*
D148*
X20393D03*
D145*
X20735Y44392D03*
D146*
X20051D03*
D145*
X19366D03*
D148*
X18680D03*
D147*
X17995D03*
D20*
X17297Y42821D03*
D53*
X28257Y25355D03*
D56*
X28428Y31348D03*
D55*
X26887Y31006D03*
D52*
X26545Y28095D03*
D53*
X27315Y24585D03*
D52*
X27401Y23215D03*
D19*
X26716Y27410D03*
D24*
X27572D03*
D23*
X28428D03*
D20*
X27914Y18592D03*
D19*
X27144Y20903D03*
X26716Y23386D03*
D21*
X27401Y23900D03*
D24*
X27572Y28780D03*
D19*
X26716Y32547D03*
D21*
X25859D03*
X25003D03*
D19*
X24147D03*
D183*
X25346Y34713D03*
D21*
X25003Y33746D03*
X25859D03*
X23976Y34259D03*
D20*
X26031Y34602D03*
D19*
X26802Y37427D03*
D104*
X26138Y36678D03*
D103*
X26566D03*
D71*
X25624Y37192D03*
D72*
Y37620D03*
D192*
X25346Y35861D03*
D19*
X23633Y35629D03*
X24661Y35801D03*
D20*
X26031D03*
D21*
X26373Y40766D03*
D19*
X24661Y40424D03*
D21*
X23976Y40338D03*
D19*
X27315Y40167D03*
D21*
X26373Y40081D03*
D72*
X25624Y38476D03*
D71*
Y38904D03*
D72*
Y39332D03*
D71*
Y39760D03*
D72*
Y40188D03*
Y40616D03*
D73*
Y41045D03*
D20*
X26973Y38712D03*
X23462D03*
D19*
X27230Y39482D03*
D20*
X28600Y38540D03*
D19*
X24661Y44705D03*
D20*
X23462Y43677D03*
D101*
X26566Y44555D03*
D102*
X26138D03*
D73*
X25624Y41473D03*
Y41901D03*
Y42329D03*
Y42757D03*
Y43185D03*
Y43613D03*
D74*
Y44041D03*
D101*
X26994Y44555D03*
D21*
X26373Y41794D03*
D24*
X27572Y42136D03*
D101*
X27422Y44555D03*
X27850D03*
D102*
X28279D03*
X28707D03*
D101*
X29135D03*
D20*
X28086Y41965D03*
D21*
X25177Y54807D03*
D24*
X23804Y54465D03*
D109*
X25174Y53694D03*
D20*
X22434Y52924D03*
D109*
X24746Y53694D03*
X24318D03*
D111*
X23890D03*
D112*
X23462D03*
D110*
X23034D03*
D19*
X24233Y53009D03*
D52*
X27713Y55150D03*
D109*
X25602Y53694D03*
D28*
X28428Y54294D03*
D144*
X26387Y55351D03*
D149*
X27072D03*
D145*
X26729Y54606D03*
D21*
X27401Y53609D03*
D20*
X28086D03*
X26887Y53780D03*
D19*
X26202D03*
D53*
X31854Y48985D03*
D52*
X32453Y54379D03*
D20*
X32025Y53951D03*
D106*
Y53155D03*
D105*
X32453D03*
D109*
X31811Y48215D03*
X32239D03*
D105*
X31811Y51468D03*
X32239D03*
D20*
X32025Y54979D03*
D111*
X32667Y48215D03*
D106*
Y51468D03*
D105*
X32881Y53155D03*
D112*
X33095Y48215D03*
D106*
Y51468D03*
D105*
X33309Y53155D03*
D106*
X33523Y51468D03*
D111*
Y48215D03*
D20*
X33224Y54465D03*
D19*
X32881Y53951D03*
X34423Y39225D03*
D20*
X34251Y38712D03*
D79*
X33502Y39332D03*
Y38476D03*
D78*
Y38904D03*
D20*
X30055Y39311D03*
X32453Y39225D03*
D19*
X29285Y39140D03*
X30740Y38883D03*
D20*
X31425Y38626D03*
X32110Y38540D03*
D19*
X29370Y38455D03*
D20*
X34251Y39739D03*
D78*
X33502Y39760D03*
D20*
X31597Y39568D03*
D80*
X33502Y41045D03*
D79*
Y40616D03*
Y40188D03*
D20*
X32538Y40253D03*
D19*
X31854Y40081D03*
D20*
X36649Y34944D03*
D19*
X34423Y37684D03*
D78*
X33502Y37192D03*
D79*
Y37620D03*
D103*
X32988Y36678D03*
X32560D03*
X32132D03*
X31704D03*
D104*
X31276D03*
X30847D03*
D103*
X30419D03*
D52*
X29970Y21759D03*
D53*
X29199Y22530D03*
D57*
X29285Y25355D03*
D55*
X29456Y30064D03*
D52*
X29114Y31862D03*
D53*
X29798D03*
D20*
X30055Y23985D03*
D19*
X29285Y27410D03*
D24*
X30141D03*
D20*
X30997D03*
X31169Y31862D03*
X30483D03*
X31083Y29465D03*
D54*
X31426Y21759D03*
D52*
X33738Y31348D03*
D56*
X32196Y21246D03*
D52*
X33052Y22556D03*
D56*
X32196Y23129D03*
D53*
X31939Y30321D03*
D52*
X32453Y31862D03*
D106*
X32624Y23729D03*
X33052D03*
D102*
Y21845D03*
X32624D03*
D20*
X33566Y27410D03*
D21*
X32710D03*
D19*
X31854D03*
D105*
X33481Y23729D03*
D101*
Y21845D03*
D19*
X33395Y29807D03*
D52*
X31169Y33232D03*
D53*
X30826Y33917D03*
D52*
X31169Y34260D03*
D24*
X33480Y34773D03*
D19*
X32881D03*
D20*
X33566Y32547D03*
D21*
X32710D03*
D19*
X31854D03*
D20*
X30997D03*
X33224Y33746D03*
X32538D03*
X32025Y33232D03*
D22*
X33909Y34088D03*
D19*
X34423Y32547D03*
X35279D03*
D21*
X36135D03*
D19*
X35964Y33917D03*
D23*
X34765D03*
D19*
X36820Y34259D03*
D21*
X36135Y34773D03*
D20*
X35107D03*
X34080Y54465D03*
D106*
X34166Y53155D03*
X34594D03*
D105*
X33952Y51468D03*
X34380D03*
X34808D03*
D109*
Y48215D03*
X34380D03*
X33952D03*
D20*
X34594Y53951D03*
X35107Y55492D03*
D23*
X34765Y54979D03*
D19*
X34936Y54465D03*
D105*
X35022Y53155D03*
D23*
X34765Y50527D03*
D20*
X35621Y55150D03*
D105*
X35450Y53155D03*
X35878D03*
D19*
X35279Y47873D03*
X35792Y48472D03*
X35450Y53951D03*
D20*
X35621Y54465D03*
D56*
X30483Y69362D03*
D54*
X28171Y69448D03*
D53*
X28771Y69534D03*
X29199D03*
D55*
X29627D03*
D53*
X30912Y70218D03*
D189*
X31340Y71015D03*
X30484D03*
D192*
X27915D03*
X27058D03*
X26202D03*
X28771D03*
X29627D03*
D20*
X31511Y69533D03*
D54*
X36478Y69705D03*
D53*
X33823Y69277D03*
D20*
X35621Y70218D03*
D19*
X37848D03*
D189*
X33053Y71015D03*
D192*
X32196D03*
X37334D03*
X36478D03*
D188*
X35621D03*
D192*
X34765D03*
D193*
X33909D03*
D19*
X34936Y69533D03*
X37334Y69705D03*
D55*
X40759D03*
D53*
X39047D03*
D52*
X38618Y70218D03*
D20*
X41787Y67650D03*
D19*
X41615Y69533D03*
Y70218D03*
D20*
X42900Y68849D03*
D66*
X42472Y69533D03*
D144*
X40601Y69050D03*
X41287D03*
D143*
X40944Y68305D03*
D182*
X39903Y67932D03*
D184*
Y69080D03*
D19*
Y70218D03*
D20*
X43328D03*
Y69533D03*
D57*
X44013Y68249D03*
D54*
X43585Y68078D03*
D19*
X45554Y70218D03*
D20*
X45897Y69533D03*
D19*
X45040D03*
D20*
X44184D03*
X46325Y68849D03*
X45469D03*
D19*
X44612D03*
D20*
X43756D03*
X46753Y69533D03*
D53*
X40502Y58232D03*
D57*
X41530Y58917D03*
D53*
X38875Y59088D03*
X40502Y59345D03*
D72*
X36931Y58917D03*
D73*
Y58489D03*
Y58061D03*
D82*
Y57633D03*
D73*
Y57205D03*
Y56777D03*
Y56348D03*
D67*
X39046Y58232D03*
D19*
X41615D03*
D20*
X38190Y57547D03*
D103*
X36306Y59542D03*
D53*
X38875Y59602D03*
D56*
X40160Y59773D03*
X39817Y60287D03*
D53*
X39047Y60458D03*
X39560Y60629D03*
D52*
X41187Y60715D03*
D57*
X36820Y59602D03*
D19*
X39475Y62256D03*
D200*
X41898Y60886D03*
D216*
X40401Y61406D03*
X38911D03*
D20*
X38190Y61657D03*
D19*
X40930Y62513D03*
X41444Y62342D03*
D20*
X43842Y33574D03*
X43328Y33146D03*
D80*
X42429Y32787D03*
Y33215D03*
Y33643D03*
Y34071D03*
D79*
Y34499D03*
D78*
Y34927D03*
D19*
X38361Y32547D03*
D23*
X37676Y34088D03*
D20*
X43328Y34602D03*
Y33917D03*
D53*
X41615Y29807D03*
D55*
X41701Y30321D03*
D54*
X34765D03*
D55*
X36649D03*
D56*
X36049Y29807D03*
D53*
X34936Y29636D03*
D56*
X35621Y29551D03*
D19*
X38361Y29123D03*
D80*
X42429Y28934D03*
Y29362D03*
Y30218D03*
Y29790D03*
D20*
X34251Y29979D03*
D19*
X38875Y30321D03*
X40930Y29807D03*
D57*
X41444Y31862D03*
D52*
X37163Y32033D03*
D55*
X36735Y31862D03*
D54*
X34765Y31348D03*
D80*
X42429Y31931D03*
Y31503D03*
Y31075D03*
Y30647D03*
D23*
X37676Y32033D03*
D19*
X41615Y31349D03*
D23*
X44869Y31006D03*
D20*
X44184Y31177D03*
D19*
X45126Y31520D03*
D162*
X62851Y38711D03*
D53*
X66962Y42136D03*
D194*
Y44508D03*
D183*
X67989Y44165D03*
D189*
X69017Y43823D03*
D192*
X66962Y43361D03*
D182*
X67989Y43018D03*
D183*
X69017Y42675D03*
D21*
X62166Y42136D03*
D53*
X71671Y70218D03*
D192*
X71586Y71015D03*
X70730D03*
D189*
X69873D03*
D192*
X71586Y72162D03*
X70730D03*
D189*
X69873D03*
D20*
X70729Y70218D03*
D189*
X72442Y71015D03*
D143*
X72541Y69992D03*
D189*
X72442Y72162D03*
D53*
X74583Y71588D03*
D52*
X75525Y70218D03*
D56*
X76466D03*
D55*
X77408D03*
D53*
X73726Y71588D03*
D19*
Y70218D03*
D192*
X73298Y72162D03*
X74155D03*
Y71015D03*
X73298D03*
D144*
X74939Y69992D03*
X74254D03*
X73226D03*
G36*
X108359Y24697D02*
G01X107503D01*
Y24705D01*
X108359D01*
G37*
G36*
X108354Y24701D02*
G01Y25557D01*
X108363D01*
Y24701D01*
G37*
G36*
X108359Y24697D02*
G01X107503D01*
Y24705D01*
X108359D01*
G37*
G36*
X108354Y24701D02*
G01Y25557D01*
X108363D01*
Y24701D01*
G37*
D24*
X101813Y26640D03*
D51*
X105170Y26777D03*
D26*
X102584Y25527D03*
D46*
X104725Y29122D03*
D26*
X102584Y34003D03*
D24*
X103440Y30835D03*
D37*
X105684Y32384D03*
Y31451D03*
Y30527D03*
Y29593D03*
X104725Y30056D03*
Y30989D03*
Y31922D03*
Y32855D03*
D224*
X103140Y29465D03*
D52*
X4820Y38309D03*
D53*
X4795Y36657D03*
D20*
X3082Y42992D03*
X3938Y44568D03*
D53*
X4795Y21074D03*
D52*
X3082Y25355D03*
Y30492D03*
X7192Y41622D03*
D105*
X6207Y20133D03*
D103*
Y23386D03*
D104*
X6636D03*
X7064D03*
D103*
X7492D03*
D106*
X6636Y20133D03*
X7064D03*
D105*
X7492D03*
D19*
X6422Y18849D03*
X6336Y24157D03*
D20*
X5651Y34944D03*
Y37170D03*
D53*
X4281Y50527D03*
D102*
X5651Y49756D03*
D101*
X5223D03*
X4795D03*
X4367D03*
D102*
X3938D03*
D20*
X5480Y48643D03*
X4966Y50527D03*
X3938Y51040D03*
D53*
X4795Y48729D03*
X4195Y48900D03*
X6850Y51725D03*
D102*
X6079Y49756D03*
X6507D03*
D101*
X6936D03*
X7364D03*
X7792D03*
D20*
X6165Y48814D03*
D19*
X7364D03*
X11945Y39996D03*
Y39140D03*
Y38283D03*
Y37427D03*
Y36571D03*
X10446Y39910D03*
D20*
X9248Y39568D03*
X10104Y39054D03*
D19*
X10446Y38540D03*
X9847Y37770D03*
D52*
X11559Y41280D03*
D19*
X11945Y40852D03*
Y41708D03*
Y42564D03*
D21*
X11816Y44568D03*
D20*
X9761Y40938D03*
D53*
X7877Y44568D03*
D52*
X11303Y42479D03*
D56*
X16183Y55578D03*
D54*
X14471Y55150D03*
D53*
X15413Y55064D03*
X16012Y54807D03*
X14043Y54122D03*
D103*
Y53438D03*
X14471D03*
X14899D03*
D104*
X15327D03*
X15755D03*
D20*
X16355D03*
D54*
X14985Y54122D03*
D57*
X14556D03*
D21*
X19716Y52984D03*
D19*
X19042D03*
Y53658D03*
D21*
X19716D03*
Y54332D03*
D19*
X19042D03*
Y55006D03*
D21*
X19716D03*
D20*
X17810Y53181D03*
D53*
X15413Y62170D03*
D52*
X13186Y61229D03*
D21*
X19716Y60397D03*
Y62418D03*
D19*
X19042D03*
Y61744D03*
D21*
X19716D03*
Y61070D03*
D19*
X19042D03*
Y60397D03*
D248*
X14385Y61931D03*
D249*
X16954Y61588D03*
D52*
X12587Y62085D03*
D55*
X17297Y60629D03*
D53*
X23119Y61657D03*
D55*
X21749Y60972D03*
D20*
Y62427D03*
D24*
X27572Y62342D03*
D20*
X29113Y62170D03*
D23*
X28428D03*
D19*
X28257Y61143D03*
D42*
X9419Y69533D03*
X10960Y69465D03*
X9419Y67187D03*
X7706D03*
X5994D03*
X4281D03*
Y69533D03*
X5994D03*
X7706D03*
D47*
X15173Y69302D03*
D42*
X21236Y69465D03*
D144*
X22691Y69277D03*
D143*
X23376D03*
D144*
X23034Y68532D03*
D21*
X25003Y67992D03*
X23890Y69705D03*
D52*
X21407Y66879D03*
D21*
X19716Y50963D03*
D19*
X19042D03*
X17639Y50527D03*
D20*
X16823Y50569D03*
D19*
X15969D03*
D20*
X15113D03*
D19*
X15539Y50912D03*
D21*
X16398D03*
D23*
X17254D03*
D56*
X14685D03*
D52*
X22263Y51040D03*
D226*
X27230Y51323D03*
D21*
X19716Y52311D03*
D19*
X19042D03*
Y51637D03*
D21*
X19716D03*
D20*
X22434Y51896D03*
D55*
X26973Y47616D03*
D52*
X26545Y47444D03*
D55*
X23551Y47441D03*
X26973Y47102D03*
D54*
X25774Y46674D03*
D53*
X24746Y46074D03*
D56*
X25431Y45475D03*
D53*
X19095Y45903D03*
D102*
X17725Y46503D03*
X17297D03*
D22*
X17468Y45732D03*
D19*
X26202Y47102D03*
D20*
X24832Y47444D03*
D52*
X22777Y47273D03*
D53*
X21150Y46931D03*
X27658Y47787D03*
X28343Y47958D03*
D54*
X28171Y48643D03*
D53*
X28771Y48985D03*
D52*
X28600Y50013D03*
X28086Y49670D03*
D102*
X17725Y49756D03*
X17297D03*
D21*
X19716Y49616D03*
D19*
X19042D03*
Y48942D03*
D21*
X19716D03*
D19*
X19042Y48268D03*
D62*
X19716D03*
D168*
X25063Y48044D03*
D169*
X23916D03*
D56*
X22948Y20047D03*
Y20561D03*
D105*
X20679Y20133D03*
D106*
X20251D03*
X19823D03*
X19395D03*
D105*
X18966D03*
D20*
X20722Y20989D03*
D52*
X22263Y21246D03*
D104*
X19395Y23386D03*
D103*
X18966D03*
D104*
X19823D03*
X20251D03*
D103*
X20679D03*
D20*
X20722Y22530D03*
D52*
X22263Y23985D03*
D53*
X21578Y23729D03*
D55*
X22006Y23557D03*
D52*
X21407Y23215D03*
D21*
X25859Y13712D03*
D55*
X26031Y20732D03*
D53*
X25174Y21246D03*
X24147D03*
D52*
X23290Y31862D03*
D55*
X23462Y31177D03*
D53*
X23633Y24328D03*
D19*
X24147Y27410D03*
D20*
X24489Y24585D03*
X24318Y30321D03*
D53*
X24147Y26554D03*
D55*
X23462Y30664D03*
D21*
X24918Y30321D03*
D54*
X25688Y26554D03*
D55*
X26031Y24242D03*
X25346Y23985D03*
X26031Y23557D03*
D21*
X25859Y27410D03*
X25003D03*
D19*
X25774Y28352D03*
X25089Y31092D03*
D56*
X25003Y26554D03*
D52*
X24918Y29122D03*
D56*
X30997Y47102D03*
D54*
X31426Y47530D03*
D116*
X30954Y48215D03*
D115*
X31383D03*
D24*
X30141Y50869D03*
D52*
X29970Y50184D03*
X31083Y50013D03*
D53*
X30312Y49670D03*
D52*
X31511Y49499D03*
D118*
X31383Y51468D03*
D117*
X30954D03*
D76*
X30543Y54208D03*
Y54636D03*
Y55064D03*
Y55492D03*
Y53780D03*
D105*
X31168Y53155D03*
D19*
X31340Y53951D03*
D20*
X30655Y53266D03*
D21*
X36135Y18592D03*
D20*
X52918Y14140D03*
D53*
X35279Y13712D03*
D20*
X40331Y22701D03*
D19*
X37505Y22958D03*
X35878D03*
X35279Y20646D03*
D101*
X34337Y21845D03*
X34765D03*
D102*
X35193D03*
D52*
X36135Y22359D03*
D56*
X35193Y22556D03*
D57*
X34337D03*
D53*
X39560Y25355D03*
X40502D03*
X35878Y24328D03*
D52*
X37163Y24157D03*
D106*
X35193Y23729D03*
G36*
X43071Y25975D02*
G01X43776D01*
X43736Y25935D01*
X43071D01*
G37*
G36*
X43776Y25975D02*
G01Y25592D01*
X43736Y25632D01*
Y25935D01*
G37*
G36*
X43776Y25592D02*
G01X43051D01*
X43091Y25632D01*
X43736D01*
G37*
G36*
X43051Y25592D02*
G01Y25955D01*
X43091D01*
Y25632D01*
G37*
D105*
X34337Y23729D03*
X34765D03*
D53*
X37334Y28438D03*
D54*
X36906D03*
D21*
X36135Y27410D03*
D19*
X35279D03*
X34423D03*
D21*
X37163Y26297D03*
D20*
X37762Y26811D03*
D19*
X34936D03*
D53*
X36306Y26554D03*
D56*
X35535Y26811D03*
D52*
X37163D03*
D53*
X34423Y28095D03*
D56*
X35535Y28438D03*
D52*
X36221D03*
X42215Y26297D03*
D57*
X41530Y26468D03*
D56*
X39817Y28095D03*
D52*
X40331D03*
D104*
X43054Y27453D03*
D78*
X42429Y28506D03*
D79*
Y28078D03*
D189*
X40331Y27299D03*
D19*
X41102Y27068D03*
D53*
X40588Y45989D03*
D55*
X39218Y46331D03*
Y47444D03*
D52*
X36221Y47359D03*
D124*
X40631Y46845D03*
D122*
X40202D03*
D126*
X39774D03*
D182*
X39389Y45278D03*
X40588D03*
D55*
X38190Y45561D03*
D54*
X37848Y45818D03*
D55*
X38190Y46503D03*
D52*
X36221Y46759D03*
D54*
X37848Y46845D03*
D53*
X39903Y47872D03*
D52*
X40331Y48044D03*
D105*
X40631Y48729D03*
D106*
X39774D03*
X40202D03*
D101*
X40631Y50099D03*
D102*
X40202D03*
X39774D03*
D19*
X36906Y50527D03*
D52*
X44955Y28609D03*
D53*
X45554Y28095D03*
X46068D03*
D104*
X46051Y27453D03*
X45623D03*
D103*
X45195D03*
X44767D03*
X44338D03*
D104*
X43910D03*
D53*
X46068Y26640D03*
X45640D03*
D104*
X46479Y27453D03*
D57*
X46582Y26725D03*
D103*
X46907Y27453D03*
D108*
X47335D03*
D103*
X47763D03*
D104*
X48192D03*
X48620D03*
X49048D03*
D52*
X48294Y26383D03*
D55*
X45383Y44790D03*
D53*
X46068Y44619D03*
D57*
X46496D03*
D53*
X45468Y44362D03*
D57*
X46496Y43164D03*
D52*
X45897Y42992D03*
D101*
X44929Y43737D03*
X45357D03*
D107*
X45785D03*
D102*
X46214D03*
X46642D03*
D20*
X46411Y38540D03*
D53*
X45040Y42650D03*
X45468Y42821D03*
D55*
X47952Y44448D03*
D56*
X47438Y44362D03*
D102*
X48783Y43737D03*
D101*
X48354D03*
X47926D03*
X47498D03*
D102*
X47070D03*
D20*
X48808Y38883D03*
D54*
X47224Y38326D03*
D52*
X48466Y38369D03*
D56*
X47866Y38455D03*
D54*
X46668Y47016D03*
D52*
X46239Y46845D03*
D80*
X44304Y45218D03*
Y45647D03*
Y46075D03*
Y46503D03*
Y46931D03*
D52*
X42814Y45646D03*
D53*
X45468Y45304D03*
D52*
X45811Y46674D03*
D53*
X47609Y47188D03*
D122*
X42771Y46845D03*
D55*
X48894Y47701D03*
D53*
X45982Y48814D03*
D52*
X48466Y47530D03*
D53*
X48037Y47359D03*
D78*
X44304Y49071D03*
D79*
Y48643D03*
D80*
Y48215D03*
Y47787D03*
D55*
X49211Y48643D03*
D80*
X44304Y47359D03*
D106*
X42771Y48729D03*
D52*
X43242Y48900D03*
D53*
X48123Y59944D03*
D182*
Y58001D03*
Y59148D03*
X47267D03*
X46410D03*
X45554D03*
X47267Y58001D03*
X46410D03*
X45554D03*
X48979D03*
Y59148D03*
D53*
X45554Y59944D03*
D55*
X46411D03*
D52*
X47267D03*
D183*
X45897Y60655D03*
D192*
Y61802D03*
D19*
X46582Y61657D03*
D20*
X45383Y62513D03*
D79*
X44304Y51211D03*
D78*
Y50783D03*
D79*
Y50355D03*
D78*
Y49927D03*
D54*
X44180Y53673D03*
D78*
X44304Y51640D03*
Y52068D03*
D79*
Y52496D03*
D78*
Y52924D03*
D124*
X44929Y53549D03*
D173*
X44415Y61999D03*
D52*
X44955Y56691D03*
D56*
X44869Y57205D03*
D53*
X44099Y57547D03*
D56*
X44869Y57890D03*
D52*
X44355Y58061D03*
Y60972D03*
D20*
X48894Y68849D03*
D19*
X49750D03*
X50606D03*
X48037D03*
X47181D03*
D250*
X47952Y64037D03*
X50521D03*
D56*
X47352Y65081D03*
D55*
X48894Y68249D03*
D54*
X50264Y64996D03*
D20*
X51463Y68849D03*
D52*
X55487Y63540D03*
D20*
X54032Y68849D03*
D19*
X52319D03*
X53175D03*
D20*
X54888D03*
D161*
X54939Y66922D03*
D19*
X52747Y68164D03*
D53*
X56857Y57119D03*
D55*
X56515Y56777D03*
D56*
X57114Y56691D03*
D53*
X56857Y56348D03*
X57200Y55920D03*
D182*
X52405Y58001D03*
Y56922D03*
X53261D03*
D192*
Y55775D03*
X52405D03*
D182*
X53261Y58001D03*
D211*
X54631Y57915D03*
D214*
X54637Y55422D03*
D215*
Y56912D03*
D182*
X53261Y59148D03*
X52405D03*
D210*
X54631Y59062D03*
D54*
X53261Y59944D03*
D172*
X53295Y60886D03*
D175*
X52148D03*
D19*
X53347Y62427D03*
D20*
X52404Y59944D03*
D53*
X52319Y62598D03*
D89*
X54117Y49927D03*
D90*
Y49499D03*
Y50355D03*
D89*
Y50783D03*
D90*
Y51211D03*
D54*
X50778Y49842D03*
G36*
X54032Y53201D02*
G01X54697D01*
X54737Y53161D01*
X54032D01*
G37*
G36*
X54697Y53201D02*
G01Y53503D01*
X54737Y53543D01*
Y53161D01*
G37*
G36*
X54697Y53503D02*
G01X54011D01*
X54052Y53543D01*
X54737D01*
G37*
G36*
X54052Y53523D02*
G01Y53181D01*
X54011D01*
Y53523D01*
G37*
D89*
X54117Y51640D03*
Y52068D03*
D90*
Y52496D03*
D89*
Y52924D03*
D52*
X50949Y52753D03*
D55*
X50435D03*
D52*
X50007Y52581D03*
G36*
X51785Y38284D02*
G01Y38626D01*
X51825D01*
Y38284D01*
G37*
G36*
Y38646D02*
G01X52490D01*
Y38606D01*
X51785D01*
G37*
G36*
X51825Y38948D02*
G01Y38646D01*
X51785Y38606D01*
Y38988D01*
G37*
G36*
X52470Y38948D02*
G01X51825D01*
X51785Y38988D01*
X52510D01*
G37*
G36*
X52470Y38626D02*
G01Y38948D01*
X52510Y38988D01*
Y38626D01*
G37*
G36*
X52470Y38304D02*
G01Y38626D01*
X52510D01*
Y38263D01*
G37*
G36*
X51805Y38304D02*
G01X52470D01*
X52510Y38263D01*
X51805D01*
G37*
D19*
X51720Y39568D03*
D21*
X51035D03*
D23*
X50349D03*
X49493Y39225D03*
D19*
X50692Y39054D03*
D20*
X50007Y38883D03*
D55*
X54032Y41109D03*
D52*
X54460Y40338D03*
D53*
X52747Y40167D03*
D56*
X52405Y40595D03*
D52*
X53090D03*
D21*
X51891Y40081D03*
D19*
X51206D03*
D21*
X54460Y40852D03*
D56*
X52918Y41366D03*
D79*
X42429Y36211D03*
D78*
Y35783D03*
D79*
Y35355D03*
D19*
X38019Y36143D03*
D20*
X43328Y35287D03*
X44698Y35972D03*
D57*
X44013Y35458D03*
D52*
X43756Y35886D03*
D90*
X52242Y36211D03*
D89*
Y35783D03*
D90*
Y35355D03*
D20*
X46239Y35373D03*
D19*
X45554Y35972D03*
D53*
X50970Y35993D03*
X50542Y35908D03*
D52*
X50114Y35608D03*
D53*
X49664Y35458D03*
D91*
X52242Y32787D03*
Y33215D03*
Y33643D03*
D20*
X50521Y33232D03*
X51548D03*
D56*
X46924Y33146D03*
D53*
X48123D03*
D91*
X52242Y34071D03*
D90*
Y34499D03*
D89*
Y34927D03*
D23*
X47781Y34431D03*
D20*
X51548Y34259D03*
D21*
X50863D03*
D19*
X50178D03*
X54289D03*
D52*
X48466Y34602D03*
D55*
X48894Y34773D03*
D91*
X52242Y28934D03*
Y29362D03*
Y29790D03*
Y30218D03*
D20*
X51463Y29979D03*
X53090Y29748D03*
D91*
X52242Y30647D03*
Y31075D03*
Y31503D03*
Y31931D03*
D19*
X47096Y31520D03*
X48123D03*
X53261D03*
D20*
X51377Y31177D03*
X53090Y30663D03*
D53*
X47096Y30664D03*
D55*
X50521Y31948D03*
X65335Y55235D03*
D53*
X57799Y55150D03*
D52*
X58484Y55064D03*
D56*
X59169Y58061D03*
D52*
X59512D03*
D53*
X59341Y62427D03*
X59940D03*
D101*
X60387Y61302D03*
D102*
X59959D03*
D114*
X59531D03*
D101*
X59102D03*
D128*
X58674D03*
D81*
X58054Y62351D03*
D80*
Y61923D03*
D55*
X58656Y58146D03*
D52*
X60711Y58061D03*
D101*
X60815Y61302D03*
D19*
X60796Y62085D03*
D132*
X58674Y66825D03*
D19*
X58399Y69619D03*
D61*
X57542D03*
D20*
X56515Y66965D03*
D19*
X57371D03*
D54*
X56900Y69576D03*
D55*
X56429Y69705D03*
X61053Y67650D03*
D52*
X60539D03*
D120*
X59959Y66825D03*
D130*
X60387D03*
X60815D03*
X61243D03*
D20*
X60111Y69619D03*
D19*
X59255D03*
D133*
X59531Y66825D03*
D130*
X59102D03*
D19*
X60368Y68164D03*
D52*
X60754Y70218D03*
D56*
X64650Y63540D03*
D80*
X63577Y63207D03*
Y63635D03*
Y64063D03*
Y64491D03*
Y64919D03*
D78*
Y65348D03*
D227*
X65335Y63095D03*
D228*
Y64842D03*
D55*
X62680Y63540D03*
X65249Y67564D03*
Y67136D03*
D56*
X64307Y66109D03*
D53*
X64992Y66023D03*
D20*
X65249Y66451D03*
D61*
Y68164D03*
D79*
X63577Y66204D03*
Y65776D03*
D121*
X62956Y66825D03*
D120*
X62528D03*
D121*
X62100D03*
D130*
X61671D03*
D52*
X58142Y54807D03*
D53*
X58827Y54722D03*
X58399Y54379D03*
D57*
X58741Y54037D03*
D52*
X59084Y54294D03*
X60539Y53438D03*
D53*
X60968D03*
D57*
X61310Y53095D03*
D53*
X60968Y52581D03*
D57*
X61310Y52239D03*
D55*
X60197D03*
D52*
X60625Y52068D03*
X67732Y54807D03*
X68160Y54551D03*
X67818Y53951D03*
D55*
X67390Y53780D03*
D52*
X66876D03*
D53*
X66448Y53694D03*
D55*
X65249Y53523D03*
D52*
X65849Y53181D03*
D53*
X65420Y53095D03*
X66020Y52753D03*
D124*
X66405Y53009D03*
D126*
X66833D03*
D122*
X67261D03*
X67689D03*
D124*
X68118D03*
D53*
X65592Y38027D03*
D20*
X65121Y36999D03*
G36*
X64683Y37162D02*
G01X63827D01*
Y37170D01*
X64683D01*
G37*
G36*
X64679Y34135D02*
G01Y34991D01*
X64687D01*
Y34135D01*
G37*
G36*
X64683Y34139D02*
G01X65539D01*
Y34131D01*
X64683D01*
G37*
G36*
X64679Y34135D02*
G01Y34991D01*
X64687D01*
Y34135D01*
G37*
G36*
X64683Y37162D02*
G01X63827D01*
Y37170D01*
X64683D01*
G37*
G36*
X64687Y37166D02*
G01Y36310D01*
X64679D01*
Y37166D01*
G37*
G36*
X64683Y34139D02*
G01X65539D01*
Y34131D01*
X64683D01*
G37*
G36*
X64687Y37166D02*
G01Y36310D01*
X64679D01*
Y37166D01*
G37*
D19*
X64564Y37855D03*
D53*
X65592Y37256D03*
D55*
X66277Y36828D03*
D52*
X69402Y37470D03*
D53*
X66962Y38027D03*
X67561Y36828D03*
D57*
X68417D03*
D56*
X66705Y37342D03*
D55*
X68760Y37427D03*
D54*
X67989Y38027D03*
D182*
X66962Y45501D03*
D183*
X67989Y46306D03*
D182*
X66962Y46648D03*
D54*
X67989Y46931D03*
D53*
X66962Y47273D03*
D54*
X67989Y47359D03*
D53*
X66962Y47701D03*
D52*
X67818Y47958D03*
D19*
X63023Y49842D03*
D20*
X61139D03*
D21*
X62166Y48985D03*
D55*
X57628D03*
X58656Y50527D03*
D52*
X59084Y50698D03*
D55*
X67390Y48129D03*
D56*
X66790Y48301D03*
D55*
X66277Y48985D03*
D53*
X58227Y55492D03*
X57885Y55835D03*
D101*
X66405Y56263D03*
D102*
X66833D03*
X67261D03*
X67689D03*
D101*
X68118D03*
D201*
X65275Y57290D03*
D202*
X66422D03*
D53*
X63965Y57205D03*
D55*
X63622Y56434D03*
D52*
X63194D03*
D53*
X63451Y56006D03*
D56*
X63793Y55749D03*
D54*
X64906Y55407D03*
D53*
X64393Y55578D03*
Y56691D03*
D102*
X62956Y61302D03*
D80*
X63577Y61923D03*
D81*
Y62351D03*
D101*
X61243Y61302D03*
X61671D03*
D102*
X62100D03*
X62528D03*
D53*
X62851Y62256D03*
D55*
X66191Y61914D03*
D53*
X67475Y59859D03*
D56*
X66705Y60116D03*
D55*
X66105Y60201D03*
D52*
X65677Y60372D03*
D53*
X67561Y61143D03*
D56*
X66790D03*
D52*
X65849Y61314D03*
D53*
X64564Y61485D03*
D52*
X66876Y61742D03*
D78*
X68779Y65112D03*
D79*
Y64684D03*
D80*
Y64256D03*
Y63828D03*
Y63400D03*
Y62972D03*
D53*
X66962Y63369D03*
X66448Y63883D03*
D52*
X67818Y66965D03*
Y66280D03*
D53*
X66962Y65595D03*
D78*
X68779Y67253D03*
Y66825D03*
D79*
Y66396D03*
D78*
Y65968D03*
D79*
Y65540D03*
D56*
X67646Y67821D03*
D52*
X68246Y68164D03*
D55*
X68674D03*
D53*
X67561Y68335D03*
X66962Y68420D03*
D56*
X67133Y69362D03*
D52*
X68332Y69534D03*
D56*
X68846D03*
X66705Y69705D03*
D55*
X69873Y60629D03*
D53*
X70472Y61143D03*
D105*
X70684Y62351D03*
X70256D03*
X69828D03*
D106*
X69399D03*
D57*
X68417Y59602D03*
D54*
X67989Y59688D03*
D52*
X68332Y60972D03*
X69188D03*
D55*
X68760Y62513D03*
D105*
X71112Y62351D03*
D52*
X72870Y60629D03*
D54*
X73641Y61229D03*
D52*
X72784Y61657D03*
D53*
X73213D03*
D105*
X73681Y62351D03*
X73253D03*
X72825D03*
D106*
X72396D03*
X71968D03*
X71540D03*
D53*
X74069Y61828D03*
X69445Y47444D03*
D124*
X68546Y53009D03*
X68974D03*
D126*
X69402D03*
D101*
X68974Y56263D03*
X68546D03*
D102*
X69402D03*
D183*
X69017Y45963D03*
D53*
Y46588D03*
Y47016D03*
D56*
X68846Y47616D03*
D52*
X69702Y51896D03*
D56*
X71842Y46160D03*
D57*
X70986D03*
D53*
X70044Y46246D03*
D52*
X71329Y46588D03*
D56*
X71842Y46674D03*
D52*
X71329Y51297D03*
X70729Y51211D03*
X71243Y50869D03*
D56*
X71757D03*
X71842Y50441D03*
D55*
X69873Y47273D03*
D53*
X70472Y47102D03*
D55*
X70901Y46845D03*
D53*
X70044Y46674D03*
D52*
X70729Y51640D03*
X70215Y51554D03*
D57*
X70130Y51982D03*
D52*
X70729Y56177D03*
D102*
X70258Y56263D03*
X69830D03*
D126*
X70258Y53009D03*
D122*
X69830D03*
D56*
X74326Y41023D03*
X73983Y41194D03*
D54*
X73641Y41366D03*
D52*
X73812Y41708D03*
D183*
X73469Y40484D03*
X70044Y41819D03*
D189*
Y42967D03*
D184*
X71072Y43617D03*
D182*
X73127Y43703D03*
X72271Y43874D03*
D183*
X70044Y43960D03*
D54*
X72185Y44448D03*
D52*
X72956Y44277D03*
D54*
X73041Y42393D03*
X73555Y42307D03*
D52*
X74497Y37684D03*
X75525D03*
Y36999D03*
D54*
X74668D03*
D55*
X73298Y37684D03*
X72442D03*
D56*
X71414D03*
D52*
X70387D03*
X73812Y36999D03*
D54*
X73127Y36914D03*
D55*
X72442D03*
D53*
X71586D03*
D55*
X70901D03*
D53*
X70044D03*
D55*
X78350Y46160D03*
D52*
X78008Y45989D03*
X78864Y45646D03*
D55*
X78350D03*
D183*
X78265Y48925D03*
D182*
Y47932D03*
D183*
Y46785D03*
D56*
X73470Y49071D03*
D55*
X72442Y46331D03*
D52*
X72956D03*
D55*
X73298D03*
D53*
X74154Y46160D03*
D56*
X79035Y45304D03*
D55*
X74925Y45475D03*
D56*
X74411Y52410D03*
D52*
X76980Y51725D03*
Y50441D03*
D53*
X75782D03*
D52*
X75353Y50527D03*
D53*
X76638Y50698D03*
D55*
X75953Y50869D03*
D52*
X76381Y51040D03*
D54*
X77151Y51126D03*
D76*
X77554Y53266D03*
D55*
X79892Y50698D03*
D53*
X79720Y51896D03*
D109*
X78179Y52641D03*
X78607D03*
D111*
X79035D03*
D112*
X79463D03*
D109*
X79892D03*
D189*
X78265Y50073D03*
D56*
X79464Y50527D03*
D53*
X78265Y50698D03*
D52*
X77836D03*
D76*
X77554Y54122D03*
Y54551D03*
D85*
Y54979D03*
D76*
Y55407D03*
D56*
X78607Y54465D03*
D53*
X76809Y54551D03*
D55*
X74925D03*
D76*
X77554Y55835D03*
D52*
X80063Y57376D03*
D53*
X75739Y57676D03*
X79292Y57633D03*
D56*
X78950D03*
D76*
X77554Y56263D03*
D75*
Y56691D03*
D88*
Y57119D03*
D75*
Y57547D03*
D57*
X72699Y56862D03*
D53*
X74240Y56605D03*
D57*
X72699Y56092D03*
D53*
X78265Y57633D03*
D56*
X78607D03*
D103*
X79892Y59028D03*
D75*
X77554Y58403D03*
D88*
Y57975D03*
D103*
X78179Y59028D03*
X78607D03*
D104*
X79035D03*
X79463D03*
D53*
X79292Y57975D03*
D52*
X76980Y58746D03*
D55*
X76552D03*
D56*
X78094Y59688D03*
D52*
X79977Y60287D03*
D53*
X75139Y62384D03*
X75696Y62342D03*
X74583Y61828D03*
D182*
X78179Y61254D03*
X79035D03*
D205*
X77152D03*
D53*
X78778Y60287D03*
D56*
X79464Y60629D03*
D55*
X75011Y61143D03*
Y66451D03*
D93*
X74302Y65968D03*
D94*
Y66396D03*
D93*
Y66825D03*
Y67253D03*
D52*
X72784Y67222D03*
D53*
X73213Y67136D03*
D54*
X73641D03*
X73041Y66622D03*
X73555Y66537D03*
D53*
X76210Y66451D03*
D130*
X73681Y67873D03*
X73253D03*
X72825D03*
D120*
X72396D03*
D54*
X74668Y67992D03*
D145*
X72884Y69247D03*
D146*
X74596D03*
D53*
X74154Y67992D03*
X85971Y65595D03*
D52*
X85115Y65424D03*
D53*
X84344Y65595D03*
D124*
Y66451D03*
X86485D03*
D122*
X86057D03*
D126*
X85629D03*
X85201D03*
D124*
X84772D03*
D183*
X84259Y63651D03*
D189*
Y64799D03*
D55*
X86228Y69705D03*
D53*
X84772Y67650D03*
D56*
X85715Y67564D03*
D53*
X83916Y67307D03*
D105*
X84344Y68335D03*
X84772D03*
D106*
X85201D03*
X85629D03*
X86057D03*
D105*
X86485D03*
D19*
X85458Y70218D03*
D52*
X84173Y69191D03*
D53*
X83916Y68763D03*
D55*
X81005Y46588D03*
D53*
X80320Y50869D03*
X81347D03*
X80834Y51554D03*
D52*
X80491Y54465D03*
D55*
X80919D03*
D52*
X81561Y57076D03*
D101*
X81390Y47402D03*
D109*
X80320Y52641D03*
X80748D03*
X81176D03*
D111*
X81604D03*
D20*
X81005Y49071D03*
Y49842D03*
D101*
X81818Y47402D03*
D55*
X82032Y51126D03*
D57*
X82375Y53438D03*
D53*
X82204Y57461D03*
D111*
X82460Y52641D03*
D112*
X82032D03*
D101*
X82246Y47402D03*
D52*
X82546Y55407D03*
Y54465D03*
D101*
X82674Y47402D03*
D55*
X83060Y51896D03*
D54*
X82803Y53523D03*
D57*
X83231D03*
D56*
X83146Y54122D03*
D53*
X82889Y57461D03*
D109*
X83317Y52641D03*
X82889D03*
D102*
X83103Y47402D03*
D57*
X83231Y57119D03*
D53*
X82889Y56777D03*
D57*
X83231Y56434D03*
D53*
X82889Y56092D03*
D57*
X83231Y55749D03*
D56*
X83146Y54807D03*
D53*
X77665Y40424D03*
Y40852D03*
D56*
X78094D03*
X79464Y41194D03*
D57*
X78179Y41366D03*
D55*
X78350Y41708D03*
D53*
X79720Y44790D03*
D52*
X80491Y41109D03*
D130*
X82246Y42693D03*
X81818D03*
X81390D03*
D109*
Y44234D03*
X81818D03*
X82246D03*
D55*
X81005Y42136D03*
D52*
X80491Y41708D03*
D56*
X81519Y41622D03*
Y41109D03*
D55*
X76552Y36999D03*
X77494D03*
D53*
X79292Y37170D03*
D55*
X78479Y37256D03*
D56*
X77537Y37641D03*
D55*
X76552Y37684D03*
D52*
X78864Y37770D03*
X79549Y38711D03*
D53*
X81390Y36914D03*
D52*
X80491D03*
D55*
X79892Y37684D03*
D53*
X81861Y37941D03*
X81390D03*
G36*
X82220Y34131D02*
G01X81363D01*
Y34139D01*
X82220D01*
G37*
G36*
X82224Y37166D02*
G01Y36310D01*
X82216D01*
Y37166D01*
G37*
G36*
Y34135D02*
G01Y34991D01*
X82224D01*
Y34135D01*
G37*
G36*
Y37166D02*
G01Y36310D01*
X82216D01*
Y37166D01*
G37*
G36*
X82220Y34131D02*
G01X81363D01*
Y34139D01*
X82220D01*
G37*
G36*
X82216Y34135D02*
G01Y34991D01*
X82224D01*
Y34135D01*
G37*
D52*
X82546Y38540D03*
D53*
X81861Y38711D03*
X80148Y38369D03*
D56*
X85715Y46074D03*
X86143D03*
D53*
X86485Y45818D03*
D101*
X86528Y47402D03*
D102*
X86100D03*
X85672D03*
D101*
X85243D03*
X84815D03*
X84387D03*
X83959D03*
D53*
X86400Y45133D03*
D56*
X85715Y45218D03*
D53*
X86828Y48129D03*
D54*
X85800Y55578D03*
D52*
X87684D03*
D55*
X87256Y55235D03*
D53*
X85458Y55064D03*
D80*
X83942Y55407D03*
D81*
Y54979D03*
D80*
Y54551D03*
Y54122D03*
Y53694D03*
Y53266D03*
D54*
X84944Y52924D03*
D52*
X85115Y53694D03*
D54*
X85286Y54379D03*
D55*
X88112Y54636D03*
D56*
X95904Y54379D03*
D53*
X90852Y53095D03*
D57*
X92907Y53266D03*
D54*
X92479D03*
D56*
X90767Y53951D03*
D53*
X91880D03*
X92393D03*
D56*
X93678Y54722D03*
D52*
X93250Y55492D03*
D109*
X94534Y53609D03*
X94106D03*
D111*
X93678D03*
D109*
X94962D03*
D111*
X95391D03*
D112*
X95819D03*
D111*
X96247D03*
D52*
X85029Y57718D03*
D55*
X84687Y57633D03*
D187*
X85115Y61254D03*
D182*
X84259D03*
D80*
X83942Y56263D03*
D79*
Y56691D03*
Y58403D03*
D78*
Y57975D03*
D79*
Y57547D03*
D78*
Y57119D03*
D54*
X85286Y56862D03*
D56*
X86571Y57205D03*
D54*
X85800Y57119D03*
D56*
X86143Y56777D03*
X85715Y56434D03*
D53*
X86314Y56006D03*
Y57461D03*
D55*
X85629Y57547D03*
D53*
X86314Y57804D03*
D54*
X85800Y58574D03*
D52*
X86656Y60886D03*
D53*
X86828Y56691D03*
D54*
X86913Y58746D03*
D55*
X87256Y62170D03*
D186*
X87170Y59628D03*
D188*
Y60775D03*
D52*
X87684Y58061D03*
D55*
X88112Y58403D03*
X87256Y58746D03*
D124*
X86913Y66451D03*
X87855D03*
X88283D03*
D126*
X88712D03*
D122*
X89140D03*
D182*
X87427Y65312D03*
D183*
Y64165D03*
D53*
X88968Y64396D03*
X88540Y64910D03*
D55*
X88112Y65595D03*
D52*
X89225Y69619D03*
D55*
X87085Y69448D03*
D53*
X87513D03*
X88540Y69277D03*
D55*
X88112Y69105D03*
D52*
X87770Y67650D03*
D53*
X86995Y67646D03*
D54*
X89396Y67393D03*
D106*
X89140Y68335D03*
X88712D03*
D105*
X86913D03*
X87855D03*
X88283D03*
D20*
X87170Y70218D03*
D19*
X88883D03*
D52*
X90253Y63883D03*
D124*
X90424Y66451D03*
X89996D03*
D105*
Y68335D03*
X90424D03*
D53*
X90852Y67222D03*
D57*
X90338D03*
D53*
X91452Y63883D03*
D19*
Y68934D03*
D182*
X91537Y64765D03*
D192*
Y65912D03*
D52*
X92650Y63455D03*
X92308D03*
D53*
X91965D03*
D56*
X92225Y65598D03*
D103*
X92651Y66366D03*
D104*
X92222D03*
D106*
Y64482D03*
D105*
X92651D03*
D20*
X92308Y68934D03*
D53*
X91880Y68506D03*
D52*
X92736D03*
D55*
X91794Y66537D03*
D52*
X95219Y65595D03*
D24*
X93764Y63455D03*
D117*
X94791Y64482D03*
D106*
X94363D03*
D118*
X93935D03*
D105*
X93507D03*
D103*
X95605Y64996D03*
D101*
Y63112D03*
D56*
X94794Y63885D03*
D55*
X95305Y68506D03*
D103*
X93507Y66366D03*
D19*
X94020Y68934D03*
D20*
X94877D03*
D137*
X93935Y66366D03*
D104*
X94363D03*
D119*
X94791D03*
D103*
X95605D03*
D53*
X93592Y68506D03*
D55*
X94363D03*
D57*
X89482Y56177D03*
D55*
X89739Y56520D03*
D56*
X91195Y59516D03*
X91623Y59345D03*
D55*
X92137D03*
D53*
X90938Y59088D03*
D55*
X92137Y58660D03*
D52*
X92736Y57633D03*
D55*
X92822Y58403D03*
D53*
X96161Y59345D03*
X95476Y56605D03*
X95990D03*
D52*
X94192Y56177D03*
X94877Y56348D03*
D53*
X93507Y56777D03*
D182*
X95220Y57230D03*
D183*
Y58378D03*
X96076D03*
D151*
X93692Y59204D03*
D152*
X94377D03*
D145*
X94034Y58459D03*
D148*
X93692Y57663D03*
D146*
X94377D03*
D144*
X94034Y56918D03*
D182*
X96076Y57230D03*
D56*
X88198Y45646D03*
D107*
X86956Y47402D03*
D101*
X87384D03*
X87812D03*
D102*
X88241D03*
D55*
X87170Y45903D03*
D52*
X87684Y46503D03*
D55*
X88189Y48138D03*
D53*
X87299Y48292D03*
D52*
X87761Y48326D03*
X91280Y45304D03*
D53*
X91366Y45732D03*
D52*
X91280Y46160D03*
D53*
X91366Y46588D03*
X91024Y46845D03*
D56*
X93764Y47273D03*
D53*
X91024D03*
Y47701D03*
D114*
X88669Y47402D03*
X89097D03*
D128*
X89525D03*
D56*
X89054Y46331D03*
D52*
X89311Y48129D03*
X88669Y48138D03*
D54*
X89910Y48386D03*
D56*
X93336Y41280D03*
D176*
X92368Y41023D03*
D145*
X93178Y38913D03*
D155*
Y40625D03*
D181*
X91220Y41023D03*
Y40167D03*
D176*
X92368D03*
Y39311D03*
D181*
X91220D03*
D53*
X91366Y42307D03*
D175*
X93224Y41879D03*
D180*
X92077D03*
D179*
Y42735D03*
D178*
X93224D03*
D53*
X91366Y44448D03*
Y44020D03*
Y43592D03*
Y43164D03*
Y42735D03*
D52*
X97446Y31348D03*
D56*
X98302D03*
Y28095D03*
G36*
X95674Y24701D02*
G01Y25557D01*
X95682D01*
Y24701D01*
G37*
G36*
X95678Y24705D02*
G01X96534D01*
Y24697D01*
X95678D01*
G37*
G36*
X95674Y24701D02*
G01Y25557D01*
X95682D01*
Y24701D01*
G37*
G36*
X95678Y24705D02*
G01X96534D01*
Y24697D01*
X95678D01*
G37*
D182*
X97445Y30039D03*
D183*
Y28891D03*
D21*
X98302Y30835D03*
X97446D03*
D56*
X96247Y27753D03*
D52*
X97446Y28095D03*
D55*
X100786D03*
X100871Y30835D03*
D67*
X99244Y26640D03*
D24*
X100100D03*
D27*
X100957D03*
D223*
X101000Y29465D03*
D19*
X99158Y31349D03*
D25*
X100015Y30835D03*
D19*
X99158Y28095D03*
D56*
X96247Y37427D03*
G36*
X95682Y37166D02*
G01Y36310D01*
X95674D01*
Y37166D01*
G37*
G36*
X95678Y37162D02*
G01X94821D01*
Y37170D01*
X95678D01*
G37*
G36*
X95682Y37166D02*
G01Y36310D01*
X95674D01*
Y37166D01*
G37*
G36*
X95678Y37162D02*
G01X94821D01*
Y37170D01*
X95678D01*
G37*
D80*
X96504Y38069D03*
D144*
X93520Y38168D03*
D156*
X94890D03*
D56*
X96247Y36229D03*
D21*
X97446Y33917D03*
D53*
X98644Y37513D03*
D54*
X98131D03*
D95*
X98388Y38069D03*
D218*
X99544Y35287D03*
D23*
X99929Y36485D03*
D21*
X98302Y33917D03*
D24*
X101299Y34003D03*
D54*
X99158Y34088D03*
X98045Y36571D03*
X99158D03*
D95*
X98388Y41066D03*
Y40638D03*
Y38926D03*
D96*
Y39354D03*
D95*
Y39782D03*
Y40210D03*
D19*
X99158Y39054D03*
D24*
X101042Y39311D03*
D53*
X99073Y40167D03*
D52*
X99115Y40637D03*
D55*
X99501Y41451D03*
D54*
X98045Y41537D03*
D56*
X98816Y41965D03*
D183*
X98302Y42761D03*
X99158D03*
D189*
Y43908D03*
X98302D03*
D24*
X100271Y41965D03*
D201*
X84918Y49670D03*
D20*
X95904Y49927D03*
D53*
X88455Y48985D03*
D52*
X87684Y49071D03*
X89225D03*
D55*
X88112Y49842D03*
X85629D03*
X94277Y49927D03*
D53*
X93592Y48814D03*
X83745Y51896D03*
D55*
X94363Y51982D03*
D53*
X91880Y51640D03*
X91452Y51468D03*
X91024D03*
X91366Y51040D03*
D56*
X96247Y52667D03*
D53*
X95648D03*
D52*
X98987Y54636D03*
D53*
X98730Y54294D03*
D182*
X99586Y53292D03*
D183*
Y54439D03*
D109*
X98687Y53609D03*
X98259D03*
D112*
X97831D03*
D111*
X97403D03*
D53*
X99758Y52667D03*
D52*
X98987D03*
D55*
X96761D03*
D53*
X97017Y53523D03*
D54*
X99586Y55064D03*
D57*
X97103Y54979D03*
X96675Y56605D03*
X99244D03*
D54*
X99586Y56434D03*
D56*
X97960D03*
D52*
X97446Y56263D03*
X99843Y55664D03*
D55*
X96932Y55578D03*
D53*
X99073Y55492D03*
D239*
X97360Y57008D03*
D187*
X99415Y57230D03*
D182*
X98645D03*
D101*
X98687Y55492D03*
X98259D03*
D102*
X97831D03*
X97403D03*
D103*
X97746Y64996D03*
D108*
X98174D03*
D103*
X98602D03*
X97746Y66366D03*
D108*
X98174D03*
D103*
X98602D03*
D101*
X97746Y63112D03*
D107*
X98174D03*
D101*
X98602D03*
D56*
X98816Y65595D03*
D53*
X100100Y66023D03*
D58*
X100015Y67136D03*
D55*
X99415Y66965D03*
D53*
X99073Y66879D03*
Y66537D03*
D183*
X99330Y65997D03*
D192*
Y64850D03*
D52*
X98987Y63283D03*
D54*
X99672D03*
D52*
X98987Y63883D03*
D55*
X99415Y64225D03*
D52*
X99843Y64482D03*
D21*
X97446Y69790D03*
D19*
X96589D03*
D21*
X97446Y68934D03*
D19*
X96589D03*
D189*
X97445Y71015D03*
X96589D03*
D53*
Y68420D03*
X96161Y68506D03*
D21*
X98302Y69790D03*
Y68934D03*
D189*
Y71015D03*
D25*
X100015Y69790D03*
D19*
X99158D03*
D25*
X100015Y68934D03*
D19*
X99158D03*
D193*
X100014Y71015D03*
D189*
X99158D03*
D55*
X100871Y67821D03*
D24*
Y68934D03*
X101727D03*
X100871Y69790D03*
X101727D03*
D192*
X100872Y71015D03*
X101728D03*
D26*
X102584Y68934D03*
Y69790D03*
D192*
Y71015D03*
D55*
X104211Y67907D03*
X104896Y68249D03*
D59*
X103611D03*
D55*
X102926Y68335D03*
D24*
X103440Y68934D03*
X104296D03*
X103440Y69790D03*
X104296D03*
D199*
X103440Y71015D03*
D192*
X104297D03*
D55*
X103868Y68677D03*
X104468Y68420D03*
D52*
X100528Y63283D03*
D59*
X102583Y63711D03*
Y64140D03*
D55*
X101214Y64482D03*
D99*
X101810Y64063D03*
Y64491D03*
Y64919D03*
D97*
Y65348D03*
D98*
Y65776D03*
Y66204D03*
D97*
Y66632D03*
D99*
Y63635D03*
Y63207D03*
D55*
X102498Y66023D03*
X100528D03*
D59*
X102669Y65595D03*
X104724Y66622D03*
D55*
X104211Y66194D03*
X104896Y65938D03*
X103012Y65338D03*
X103269Y64482D03*
D59*
X101727Y49927D03*
Y51982D03*
D55*
X101299Y52667D03*
X100442D03*
D52*
X101042Y53866D03*
D55*
X101299Y55064D03*
D59*
X100614Y55150D03*
D24*
X101128Y49927D03*
D182*
X101300Y53292D03*
D183*
Y54439D03*
D159*
X101142Y55548D03*
D55*
X100700Y58061D03*
D156*
X100799Y56293D03*
D141*
X101042Y59259D03*
D140*
X101471D03*
D138*
X101042Y57376D03*
D139*
X101471D03*
D156*
X101484Y56293D03*
D55*
X101385Y61571D03*
D59*
X101727Y61400D03*
D55*
X101471Y60886D03*
X101128D03*
X100786Y60544D03*
X101642D03*
X101299Y58318D03*
D59*
X102155Y49242D03*
D142*
X102431Y61730D03*
D140*
X102327Y59259D03*
D139*
Y57376D03*
D158*
X102341Y56293D03*
D59*
X102155Y60544D03*
D55*
X102330Y58230D03*
D59*
X102583Y51640D03*
X102669Y55064D03*
D140*
X102754Y59259D03*
D139*
Y57376D03*
D159*
X102682Y55548D03*
D59*
X103183Y45390D03*
D55*
X103012Y51554D03*
Y52667D03*
D59*
X103183Y55064D03*
Y56777D03*
D142*
X102860Y61730D03*
D139*
X103183Y57376D03*
D140*
Y59259D03*
D156*
X103025Y56293D03*
D182*
X103012Y53292D03*
D183*
Y54439D03*
D59*
X103097Y61057D03*
D55*
X102840Y58232D03*
X106609Y62513D03*
D59*
X107721Y61828D03*
X107293Y61657D03*
D55*
X107636Y61314D03*
D100*
X107333Y62351D03*
D142*
X106713Y61730D03*
D59*
X107207Y47958D03*
X106865Y48301D03*
D55*
X106951Y48814D03*
D59*
X107207Y49242D03*
X106779Y49328D03*
D55*
X108749Y58660D03*
G36*
X108363Y48621D02*
G01Y47765D01*
X108354D01*
Y48621D01*
G37*
G36*
X109370Y48617D02*
G01X108514D01*
Y48625D01*
X109370D01*
G37*
G36*
X109365Y48621D02*
G01Y49478D01*
X109374D01*
Y48621D01*
G37*
G36*
X108359Y48625D02*
G01X109216D01*
Y48617D01*
X108359D01*
G37*
G36*
X109370D02*
G01X108514D01*
Y48625D01*
X109370D01*
G37*
G36*
X108363Y48621D02*
G01Y47765D01*
X108354D01*
Y48621D01*
G37*
G36*
X109365D02*
G01Y49478D01*
X109374D01*
Y48621D01*
G37*
G36*
X108359Y48625D02*
G01X109216D01*
Y48617D01*
X108359D01*
G37*
D55*
X108749Y49927D03*
Y52667D03*
X105495Y66366D03*
D59*
X105238Y65509D03*
D55*
X105838Y64910D03*
X106437Y64653D03*
X108749Y64482D03*
X106437Y63968D03*
D99*
X107333Y63635D03*
Y63207D03*
D24*
X106351Y63369D03*
D99*
X107333Y64063D03*
Y64491D03*
Y64919D03*
D97*
Y65348D03*
D98*
Y65776D03*
Y66204D03*
D55*
X108749Y63198D03*
D97*
X107333Y66632D03*
D59*
X105152Y66622D03*
X106351Y70218D03*
D55*
X105838D03*
X105581Y68592D03*
X106951Y68506D03*
D59*
X105238Y67907D03*
D55*
X107037Y67821D03*
D140*
X106713Y67253D03*
X106285D03*
X105856D03*
X105429D03*
D24*
X108749Y69876D03*
M02*